<?xml version="1.0" encoding="utf-8"?>
<!-- Generator: Adobe Illustrator 19.2.1, SVG Export Plug-In . SVG Version: 6.00 Build 0)  -->
<svg version="1.1" id="Layer_1" xmlns="http://www.w3.org/2000/svg" xmlns:xlink="http://www.w3.org/1999/xlink" x="0px" y="0px"
	 viewBox="0 0 936.8 731.9" style="enable-background:new 0 0 936.8 731.9;" xml:space="preserve">
<style type="text/css">
	.st0{fill:#FFFFFF;}
</style>
<g>
	<path class="st0" d="M742,364.7c7,0,13.7-0.1,20.3,0c39.9,1,74.5,15.8,105.1,40.8c34.7,28.2,57.9,63.4,66,108
		C955.1,634.3,870.7,709.3,794,726c-48.7,10.6-96.2,7.8-140.5-17.1c-38-21.3-65-53.1-84.4-91.6c-16-31.9-24.6-66-28.9-101.3
		c-5.4-44.4-4.7-88.8,1-133.1c8-61.4,27.7-119.1,56.2-173.9C628.3,149.9,669,98.4,721.2,56.5c27.6-22.1,57.3-40.6,91.5-50.9
		c20.1-6,40.6-7.6,61.2-2.9c30.4,7,51,29.1,56.1,59.9c2.6,15.6,2.5,31.2-1.4,46.6c-6.1,23.7-21.1,40.3-42.2,51.9
		c-29.1,16.1-56.2,35-80.3,58.2c-32.7,31.6-51.6,70.2-60,114.4c-1.6,8.7-2.7,17.4-4,26.1C741.9,361.2,742,362.5,742,364.7z"/>
	<path class="st0" d="M203,364.6c3.7,0,7,0.1,10.3,0c56.2-1.5,101.8,21.2,139.5,61.4c37.3,39.7,50.5,87.6,46.6,141.2
		c-6.4,88.2-78.3,145.3-147.8,157.9c-39.6,7.2-78.7,6.1-116.3-9.7c-48.8-20.6-82.5-57-105.2-104c-15.2-31.5-22.9-65.2-26.8-99.8
		c-4.4-38.4-4.1-76.8,0.1-115.2C9.6,338.4,25.4,283.2,51,230.8c25.1-51.4,55.6-99,96-139.8c30.7-31.1,64.8-57.9,104.8-76.3
		C271.9,5.3,293-0.2,315.5,0.1c46.6,0.7,78.4,32.4,79.7,79c1,37.6-14.6,65.3-47.7,83.4c-36.9,20.1-70.1,44.8-97.5,77
		c-25.4,29.8-39.2,64.6-44.9,102.9c-0.9,5.8-1.4,11.6-2,17.4C202.9,361.1,203,362.4,203,364.6z"/>
</g>
</svg>
