<?xml version="1.0" encoding="utf-8"?>
<!-- Generator: Adobe Illustrator 19.0.1, SVG Export Plug-In . SVG Version: 6.00 Build 0)  -->
<svg version="1.1" id="Layer_1" xmlns="http://www.w3.org/2000/svg" xmlns:xlink="http://www.w3.org/1999/xlink" x="0px" y="0px"
	 viewBox="0 0 1000 1000" style="enable-background:new 0 0 1000 1000;" xml:space="preserve">
<style type="text/css">
	.st0{fill:#FFFFFF;}
</style>
<path class="st0" d="M153.8,346.2H0v307.7h153.8l307.7,230.8h76.9V115.4h-76.9L153.8,346.2z M647.2,391.2c-15-15-39.4-15-54.4,0
	c-15,15-15,39.4,0,54.4c30,30,30,78.7,0,108.8c-15,15-15,39.4,0,54.4c15,15,39.4,15,54.4,0C707.3,548.7,707.3,451.3,647.2,391.2
	L647.2,391.2z M756.1,282.4c-15-15-39.4-15-54.4,0c-15,15-15,39.4,0,54.4c90.1,90.1,90.1,236.2,0,326.4c-15,15-15,39.4,0,54.4
	c15,15,39.4,15,54.4,0C876.2,597.4,876.2,402.5,756.1,282.4L756.1,282.4z M864.8,173.6c-15-15-39.4-15-54.4,0s-15,39.4,0,54.4
	c150.2,150.2,150.2,393.7,0,543.9c-15,15-15,39.4,0,54.4s39.4,15,54.4,0C1045.1,646.1,1045.1,353.9,864.8,173.6L864.8,173.6z"/>
</svg>
