<?xml version="1.0" encoding="utf-8"?>
<!-- Generator: Adobe Illustrator 19.2.1, SVG Export Plug-In . SVG Version: 6.00 Build 0)  -->
<svg version="1.1" id="Layer_1" xmlns="http://www.w3.org/2000/svg" xmlns:xlink="http://www.w3.org/1999/xlink" x="0px" y="0px"
	 viewBox="0 0 208.4 356.4" style="enable-background:new 0 0 208.4 356.4;" xml:space="preserve">
<g>
	<path d="M64.4,0c1.2,0.7,2.1,1.1,2.9,1.7c47.7,34.6,87.8,76.1,115.3,128.8c18.2,34.9,27.7,72,25.6,111.6
		c-1.1,20.9-4.7,41.4-13.3,60.6c-20.7,46-67.4,64.9-116.4,47.3c-52.3-18.7-84.1-70.7-77.5-126c3.2-27.5,13.4-52.4,27.6-75.9
		c2,0.7,2.1,2.5,2.8,3.9c4.8,9.3,9.7,18.6,16.9,26.4c3.8,4.2,7.9,8.9,14.4,7.2c6.2-1.7,8.1-7.6,9.4-13.2c3.7-15.5,3.8-31.4,3.6-47.2
		C75.2,84,71.6,43.2,64.4,2.8C64.3,2.1,64.4,1.2,64.4,0z M71.9,297c5.4,3,17,4.9,28.4,4.7c24.5-0.4,37.6-13.1,38.3-37.6
		c0.3-12.7-1.7-24.9-8.7-35.9c-2.8-4.4-6.3-8.2-11.5-10.5c-0.6,10.5-1.2,20.3-3.2,29.9c-4,19.1-11.5,35.5-31.7,42.6
		C79.3,291.7,75.3,293.9,71.9,297z"/>
</g>
</svg>
