<?xml version="1.0" encoding="utf-8"?>
<!-- Generator: Adobe Illustrator 19.0.1, SVG Export Plug-In . SVG Version: 6.00 Build 0)  -->
<svg version="1.1" id="Layer_1" xmlns="http://www.w3.org/2000/svg" xmlns:xlink="http://www.w3.org/1999/xlink" x="0px" y="0px"
	 viewBox="0 0 334.1 335.3" style="enable-background:new 0 0 334.1 335.3;" xml:space="preserve">
<style type="text/css">
	.st0{fill:#080808;}
</style>
<g>
	<path class="st0" d="M0,168.6c1.1-48.5,18-89,52-122.1c2.4-2.4,4.5-3.4,8.2-2.6C71.6,46,83,48,94,51.9c4.1,1.4,8,3.2,11.5,5.8
		c6.2,4.7,6.9,10.2,2.1,16.4c-4.2,5.3-9.5,9.3-15.1,12.9c-11.9,7.7-24.6,13.9-35.9,22.6c-4.5,3.4-9,6.9-12.3,11.6
		c-4.4,6.3-3.3,11.3,3.5,14.8c8.7,4.5,18.3,5.8,27.9,7c26.4,3.3,53.1,4.1,79.6,6.3c30,2.4,60,4.9,88.9,13.8
		c6.7,2.1,13.3,4.3,19.1,8.4c9.3,6.4,11.4,14.7,5.8,24.6c-6,10.7-15.5,18.1-25.3,25.1c-28.5,20.5-60.1,35.3-92,49.8
		c-25.4,11.5-51.4,21.7-77.4,31.8c-2.9,1.1-4.8,0.7-7.2-1.1c-36.7-28.4-59-65.2-65.5-111.4c-0.3-1.8-0.6-3.6-0.8-5.4
		C0.6,179,0.3,173.2,0,168.6z"/>
	<path class="st0" d="M61.5,38.2C76.9,25.6,93,16.5,110.6,10.1c83.8-30.5,177.1,10.2,211.9,92.2c5.5,12.9,9.1,26.3,11.4,40.1
		c0.4,2.7,0.6,4.5-3.4,3.2c-17.7-5.7-36.1-7.5-54.5-8.5c-41.6-2.5-83.2-1.4-124.9-2.2c-13.3-0.3-26.6-0.7-39.5-4.6
		c-1.6-0.5-3.2-1-4.7-1.7c-6-3-7-7.6-3-13c3.5-4.7,8.2-8.3,13-11.6c7.4-5.2,15.1-9.7,23-14.1c6.7-3.7,13.4-7.5,18.7-13.2
		c6.5-7,5.9-13-2.1-18.2c-9.8-6.4-21.1-8.9-32.3-11.3c-19.2-4-38.6-6.6-58.2-8.3C65,38.9,63.9,38.6,61.5,38.2z"/>
	<path class="st0" d="M334,188.9c-9.1,59.6-39.9,104.1-94.6,129.9c-54.8,25.8-108.9,20.9-160.9-10.6c7.6-2.4,15.3-4.7,22.9-7.2
		c57.9-18.8,114.7-40.1,168.4-69.1C292.4,219.7,314.5,206.4,334,188.9z"/>
</g>
</svg>
