<?xml version="1.0" encoding="utf-8"?>
<!-- Generator: Adobe Illustrator 19.0.1, SVG Export Plug-In . SVG Version: 6.00 Build 0)  -->
<svg version="1.1" id="Layer_1" xmlns="http://www.w3.org/2000/svg" xmlns:xlink="http://www.w3.org/1999/xlink" x="0px" y="0px"
	 viewBox="-72 244 466 305" style="enable-background:new -72 244 466 305;" xml:space="preserve">
<style type="text/css">
	.st0{fill:#177AF1;}
</style>
<g>
	<path class="st0" d="M190.1,276.3c-1.6,5.5-2.9,9.5-4,13.6c-22.1,81.5-44.2,163-66.3,244.5c-0.7,2.4-1.3,4.8-2,7.2
		c-1.1,3.4-3.2,5.5-6.9,5.4c-3.9-0.1-6-2.6-6.8-6.2c-2.1-9.1-4.1-18.2-6.2-27.3C85.3,457.8,72.7,402.1,60,346.4
		c-0.2-0.9-0.5-1.8-1.1-3.9c-1.2,2.2-2,3.5-2.6,4.9c-9.4,21.1-19.1,42.2-28.1,63.5c-2.7,6.4-6.9,8.8-13.4,8.7c-10-0.1-20,0.1-30,0.2
		c-14.3,0.2-28.7,0.4-43,0.6c-1.8,0-3.7,0.1-5.5-0.1c-3.8-0.4-6.4-2.2-6.5-6.2s2.3-6.1,6.1-6.6c2.5-0.3,5-0.3,7.5-0.3
		c22-0.2,44-0.6,66-0.6c4.6,0,7.1-1.3,9-5.7c11.3-26,22.9-51.8,34.5-77.6c0.5-1.1,0.6-2.5,1.5-3.1c2.3-1.9,4.8-4.5,7.4-4.8
		c3.8-0.4,5.5,3,6.3,6.6c5.3,23.6,10.6,47.1,15.9,70.7c8.7,38.3,17.4,76.7,26,115c0.4,1.6,0.8,3.2,1.6,6.4c1.1-3.5,1.8-5.5,2.3-7.6
		c21-77.3,42-154.6,63-231.9c1.9-6.9,3.8-13.8,5.6-20.7c1.1-4,2.2-8,7.4-8c5,0,6.5,3.8,7.6,7.9c12.1,43.2,24.3,86.5,36.5,129.7
		c7.1,25.2,14.1,50.4,21.2,75.5c0.6,2.2,1.3,4.4,2.4,7.8c1.6-3.3,2.6-5.5,3.6-7.7c12.2-26.6,24.6-53.2,36.6-80
		c2.8-6.3,6.9-8.8,13.5-8.7c23.7,0.4,47.3,0.6,71,0.9c1.3,0,2.7,0,4,0.2c3.8,0.6,6.3,2.7,6.1,6.6c-0.1,4-2.8,6.1-6.5,6.2
		c-5.2,0.2-10.3-0.1-15.5-0.1c-18.5-0.2-37-0.3-55.5-0.6c-3.5-0.1-5.4,1.1-6.8,4.3c-14.3,31.5-28.8,63-43.2,94.5
		c-0.6,1.2-1.1,2.4-1.7,3.6c-1.6,3.3-4,5.4-7.8,5c-3.7-0.4-5.4-2.9-6.3-6.2c-3.3-11.9-6.7-23.7-10-35.6
		c-15.8-55.6-31.4-111.2-47-166.9C191.6,280.8,191.1,279.3,190.1,276.3z"/>
</g>
</svg>
