<?xml version="1.0" encoding="utf-8"?>
<!-- Generator: Adobe Illustrator 19.2.1, SVG Export Plug-In . SVG Version: 6.00 Build 0)  -->
<svg version="1.1" id="Icon" xmlns="http://www.w3.org/2000/svg" xmlns:xlink="http://www.w3.org/1999/xlink" x="0px" y="0px"
	 viewBox="0 0 45.5 49.5" style="enable-background:new 0 0 45.5 49.5;" xml:space="preserve">
<g>
	<path d="M40.8,49.5c2.6,0,4.8-2.1,4.8-4.8v-36c0-2.6-2.1-4.8-4.8-4.8h-8.6H32l-0.1-0.1c-1.5-1.6-3.4-2.7-5.4-3.3c0,0,0,0-0.1,0
		c-0.4-0.1-0.7-0.2-1.1-0.3c-0.2,0-0.4-0.1-0.6-0.1c-0.2,0-0.5-0.1-0.7-0.1C23.6,0,23.2,0,22.8,0s-0.9,0-1.3,0.1
		c-0.2,0-0.5,0.1-0.7,0.1c-0.2,0-0.4,0.1-0.6,0.1c-0.4,0.1-0.8,0.2-1.1,0.3c0,0,0,0-0.1,0c-2,0.6-3.9,1.8-5.4,3.3L13.5,4h-0.1H4.8
		C2.1,4,0,6.1,0,8.8v36c0,2.6,2.1,4.8,4.8,4.8H40.8z M22.8,1.4c6.3,0,11.4,5.1,11.4,11.4S29,24.1,22.8,24.1S11.4,19,11.4,12.8
		S16.5,1.4,22.8,1.4z M1.5,44.8v-36c0-1.8,1.5-3.4,3.2-3.4h7.5L12,5.8c-1.3,2-2,4.5-2,7c0,7,5.7,12.8,12.8,12.8s12.8-5.7,12.8-12.8
		c0-2.5-0.7-4.9-2-7l-0.2-0.4h7.5c1.8,0,3.2,1.5,3.2,3.4v36c0,1.6-1.1,2.9-2.6,3.2C41.2,48,41,48,40.8,48h-36c-0.2,0-0.4,0-0.6-0.1
		C2.6,47.7,1.5,46.3,1.5,44.8z"/>
</g>
<path d="M24.5,14.8c0-0.6-0.3-1.2-0.9-1.5l-0.1-0.1V7.8c0-0.4-0.3-0.8-0.8-0.8S22,7.3,22,7.8v5.4l-0.1,0.1c-0.5,0.3-0.9,0.9-0.9,1.5
	c0,1,0.8,1.8,1.8,1.8S24.5,15.7,24.5,14.8z"/>
</svg>
