<?xml version="1.0" encoding="utf-8"?>
<!-- Generator: Adobe Illustrator 19.2.1, SVG Export Plug-In . SVG Version: 6.00 Build 0)  -->
<svg version="1.1" id="Icon" xmlns="http://www.w3.org/2000/svg" xmlns:xlink="http://www.w3.org/1999/xlink" x="0px" y="0px"
	 viewBox="0 0 49.5 49.5" style="enable-background:new 0 0 49.5 49.5;" xml:space="preserve">
<path d="M24.2,1.1C23.6,0.4,22.8,0,22,0c0,0,0,0,0,0c-0.5,0-1,0.2-1.5,0.5c-1.3,0.9-7,5.3-8.4,6.5c-0.8,0.7-1.5,2.1-2.7,4.5
	l-0.1,0.2C9,12.6,8,14.3,7,16.2c-1.9,3.4-4.1,7.2-4.9,9.3C0.6,29.6,0,35.3,0,38.9c0,2.9,3.8,4.8,6,5.7c0.8,0.3,1.6,0.6,2.3,1
	c3.4,1.5,7,3,13.4,3c2.8,0,5.8-0.9,8.4-1.7c2.1-0.7,4.1-1.3,5.6-1.3c4.1,0,4.2,2.9,4.2,3.2c0,0.3,0.1,0.5,0.3,0.6
	c0.2,0.1,0.5,0.2,0.7,0.1c7.8-3,8.5-11.6,8.5-21.7c0-0.2-0.1-0.5-0.3-0.6c-0.1-0.1-2.9-2.1-7.3-2.1c-0.9,0-1.9,0.1-3.2,0.3
	c-4.9,0.8-7.9,4-9,5.3l-0.1,0.2l-0.2-0.1C28.2,30,25.7,29,22.6,29c0,0,0,0,0,0c-1.7,0-3.3,0.3-5,0.9c-0.3,0.1-0.7,0.3-1,0.4
	l-0.3,0.1l-0.1-0.3c-0.6-2.7-0.8-4.9-0.8-6.9c0-1.8,1-5.9,1.5-7.6l0.1-0.2h1.2c1,0,2.1-0.5,3.3-1.1c1.2-0.6,2.6-1.2,3.8-1.2
	c1.9,0,3.3-1.2,3.3-2.7c0-0.7-0.3-1.2-0.8-1.7l-0.2-0.1l0.1-0.2c0.3-0.5,0.5-1,0.5-1.6c0-0.9-0.6-1.7-2.2-3.5
	C25.5,2.7,24.9,2,24.2,1.1z M23.8,9.4l2.4,0c0.6,0.3,1,0.6,1,1.1c0,0.8-0.8,1.3-1.9,1.3c-1.5,0-3,0.7-4.4,1.4c-1,0.5-2,1-2.7,1h-1.7
	c-0.3,0-0.5,0.1-0.6,0.4c-0.5,1-1.7,6.4-1.7,8.8c0,2.6,0.3,5.1,0.9,7.8l0.1,0.2l-0.2,0.1c-1.6,1-2.9,2.2-3.5,2.8
	c-0.3,0.2-0.3,0.7,0,0.9c0.2,0.3,0.7,0.3,0.9,0c0.6-0.6,2.1-2,3.9-3c0.7-0.4,1.4-0.8,2-1c1.5-0.5,3-0.8,4.5-0.8c4,0,6.8,1.9,6.9,1.9
	c0.1,0.1,0.3,0.1,0.5,0.1c0.2,0,0.3-0.1,0.4-0.3c0,0,2.9-4.5,8.6-5.4c1.3-0.2,2.2-0.3,2.9-0.3c3.1,0,5.3,1.1,6.2,1.6l0.1,0.1l0,0.1
	c0,8.8-0.4,16.3-6.4,19.4l-0.4,0.2l-0.1-0.4c-0.3-1-1.5-3.3-5.4-3.3c-1.7,0-3.8,0.6-6,1.3c-2.5,0.8-5.4,1.7-8,1.7
	c-6.2,0-9.4-1.4-12.9-2.9c-0.8-0.3-1.5-0.7-2.3-1c-1.2-0.5-5.1-2.2-5.1-4.4c0-3.5,0.5-9,2-12.9c0.7-1.9,3-5.9,4.8-9.1
	c1.1-2,2-3.6,2.5-4.6l0.1-0.2c1-2.1,1.7-3.6,2.3-4.1c1.4-1.2,7.1-5.5,8.3-6.4c0.6-0.4,1.2-0.3,1.7,0.4c0.6,0.8,1.2,1.5,1.7,2
	l0.1,0.1c1.3,1.6,1.9,2.3,1.9,2.6c0,0.7-0.4,1.1-0.6,1.2l-0.1,0l-2.3,0c-0.4,0-0.7,0.3-0.7,0.6S23.4,9.4,23.8,9.4z"/>
</svg>
