<?xml version="1.0" encoding="utf-8"?>
<!-- Generator: Adobe Illustrator 19.0.1, SVG Export Plug-In . SVG Version: 6.00 Build 0)  -->
<svg version="1.1" id="Layer_1" xmlns="http://www.w3.org/2000/svg" xmlns:xlink="http://www.w3.org/1999/xlink" x="0px" y="0px"
	 viewBox="-56 532 554 262" enable-background="new -56 532 554 262" xml:space="preserve">
<g>
	<path fill="#FFFFFF" d="M370,794c-17.7,0-35.3,0-53,0c-11.7-4-16.3-12.2-16.1-24.4c0.4-34.2,0.1-68.3,0.1-102.5c0-1.9,0-3.9,0-5.9
		c-53.6,0-106.7,0-160,0c0,2.2,0,4,0,5.9c0,34.2-0.2,68.3,0.1,102.5c0.1,12.3-4.4,20.5-16.1,24.4c-17.7,0-35.3,0-53,0
		c-11.7-4-16.3-12.2-16.1-24.4c0.4-34.1,0.1-68.3,0.1-102.5c0-1.9,0-3.9,0-5.9c-9.3,0-18,0-27,0c0,2.2,0,4,0,5.8
		c0,20.8,0,41.6,0,62.5c0,13.2-8.3,21.5-21.6,21.5c-12.8,0-25.7-0.4-38.5,0.1C-43.5,751.6-52,747-56,735c0-47.7,0-95.3,0-143
		c4-12,12.5-16.6,24.9-16.1c12.8,0.5,25.7,0.1,38.5,0.1c13.3,0,21.5,8.3,21.6,21.5c0,14.8,0,29.6,0,44.5c0,1.8,0,3.5,0,5.3
		c9.4,0,18.1,0,27,0c0-2.3,0-4.1,0-5.9c0-28.1,0.3-56.3-0.1-84.4c-0.2-12.5,4.1-21,16.1-25c17.7,0,35.3,0,53,0
		c12,4,16.3,12.5,16.1,24.9c-0.4,28.3-0.1,56.7-0.1,85c0,1.8,0,3.5,0,5.4c53.7,0,106.7,0,160,0c0-2.2,0-4.1,0-5.9
		c0-28.2,0.3-56.3-0.1-84.5C300.7,544.5,305,536,317,532c17.7,0,35.3,0,53,0c12,4,16.3,12.5,16.1,24.9c-0.4,28.3-0.1,56.6-0.1,84.9
		c0,1.8,0,3.6,0,5.5c9.3,0,18,0,27,0c0-16.9,0-33.4,0-49.8c0-13.2,8.3-21.4,21.6-21.5c12.8,0,25.7,0.4,38.5-0.1
		c12.4-0.5,20.9,4.1,24.9,16.1c0,47.7,0,95.3,0,143c-4,12-12.5,16.6-24.9,16.1c-12.6-0.5-25.3-0.1-38-0.1c-13.9,0-22.1-8.1-22.1-22
		c0-20.8,0-41.6,0-62.5c0-1.8,0-3.5,0-5.3c-9.4,0-18.1,0-27,0c0,2.3,0,4.1,0,5.9c0,34.2-0.2,68.3,0.1,102.5
		C386.3,781.8,381.7,790,370,794z M128,663.3c0-36.2,0-72.3,0-108.5c0-7.6-2.2-9.7-9.8-9.7c-13.3,0-26.7,0-40,0
		c-6.7,0-9.1,2.4-9.1,9c0,72.7,0,145.3,0,218c0,6.6,2.4,9,9.1,9c13.2,0,26.3,0,39.5,0c8.4,0,10.4-2,10.4-10.2
		C128,734.9,128,699.1,128,663.3z M373,663.1c0-36.3,0-72.7,0-109c0-6.7-2.4-9.1-9-9.1c-13.7,0-27.3,0-41,0c-6.6,0-9,2.4-9,9.1
		c0,72.5,0,145,0,217.5c0,7,2.3,9.3,9.2,9.4c13.2,0,26.3,0,39.5,0c8.3,0,10.2-2,10.2-10.3C373,734.8,373,699,373,663.1z M16,663.9
		c0-22,0-44,0-66c0-6.3-2.4-8.8-8.7-8.8c-13.8,0-27.7,0-41.5,0c-6.3,0-8.7,2.5-8.7,8.9c0,43.7,0,87.3,0,131c0,6.7,2.4,9.1,9,9.1
		c13.5,0,27,0,40.5,0c7.2,0,9.4-2.3,9.4-9.6C16,706.8,16,685.3,16,663.9z M426,663c0,21.8,0,43.7,0,65.5c0,7.2,2.3,9.5,9.6,9.5
		c13.5,0,27,0,40.5,0c6.4,0,8.8-2.4,8.8-8.7c0-43.8,0-87.6,0-131.5c0-6.3-2.5-8.7-8.8-8.7c-13.5,0-27,0-40.5,0
		c-7.3,0-9.6,2.2-9.6,9.5C426,620,426,641.5,426,663z"/>
</g>
</svg>
