<?xml version="1.0" encoding="utf-8"?>
<!-- Generator: Adobe Illustrator 19.2.1, SVG Export Plug-In . SVG Version: 6.00 Build 0)  -->
<svg version="1.1" id="Isolation_Mode" xmlns="http://www.w3.org/2000/svg" xmlns:xlink="http://www.w3.org/1999/xlink" x="0px"
	 y="0px" viewBox="0 0 58.8 53.3" style="enable-background:new 0 0 58.8 53.3;" xml:space="preserve">
<g>
	<path d="M45.3,20.2c-4.4-9.2,0-15.8,0.2-16.1c0.1-0.1,0.1-0.3,0.1-0.5c0-0.2-0.2-0.3-0.3-0.4C45,3.2,37.7,0,29.4,0
		c-8.2,0-15.6,3.2-15.9,3.3c-0.2,0.1-0.3,0.2-0.3,0.4c0,0.2,0,0.3,0.1,0.5c0.2,0.3,4.6,6.9,0.2,16.1C8,31.7,7,42.4,10.6,52.1
		c0.1,0.3,0.4,0.4,0.7,0.3c0.3-0.1,0.4-0.4,0.3-0.7c-3.5-9.4-2.5-19.8,2.8-31c3.7-7.8,1.5-13.9,0.3-16.1l-0.2-0.5l0.5-0.2
		c2.2-0.8,8.1-2.8,14.3-2.8c6.2,0,12,1.9,14.3,2.8l0.5,0.2L44,4.6c-1.1,2.3-3.4,8.4,0.3,16.1c5.3,11.2,6.3,21.6,2.8,31
		c-0.1,0.3,0,0.6,0.3,0.7c0.3,0.1,0.6,0,0.7-0.3C51.8,42.4,50.8,31.7,45.3,20.2z"/>
	<path d="M29.1,23.6c0-0.8,0.7-1.5,1.5-1.5c0,0,0,0,0,0c-0.3-0.3-0.6-0.5-1.1-0.5c-0.8,0-1.5,0.7-1.5,1.5c0,0.8,0.6,1.4,1.4,1.5
		C29.2,24.3,29.1,24,29.1,23.6z"/>
	<path d="M29.8,31.8c-0.2,0-0.3,0-0.4,0c-3.6,0-17.4-4.2-18-4.4l0.4-1.4c0.1,0,14.4,4.3,17.6,4.3l0.1,0c1.9,0.3,11.3-2.4,17.1-4.3
		l0.5,1.4C45.6,27.9,33.4,31.8,29.8,31.8z"/>
	<path d="M30,43.1h-1.5c0-6.2-13.4-9.8-18.6-10.7l0.3-1.5C11,31,30,34.4,30,43.1z"/>
	<path d="M30,43.1h-1.5c0-8.7,19-12,19.8-12.2l0.3,1.5C43.5,33.3,30,36.9,30,43.1z"/>
	<rect x="28.5" y="42.4" width="1.5" height="10.9"/>
	<g>
		<rect x="0" y="10.8" width="9.7" height="1.5"/>
		<rect x="8.1" y="7.2" transform="matrix(0.7071 -0.7071 0.7071 0.7071 -4.5044 9.2382)" width="1.5" height="5.8"/>
		<rect x="6" y="12.3" transform="matrix(0.7071 -0.7071 0.7071 0.7071 -6.6485 10.1263)" width="5.8" height="1.5"/>
	</g>
	<g>
		<rect x="49.1" y="10.8" width="9.7" height="1.5"/>
		<rect x="49.2" y="10.2" transform="matrix(0.7071 -0.7071 0.7071 0.7071 5.362 39.1212)" width="1.5" height="5.8"/>
		<rect x="47" y="9.3" transform="matrix(0.7071 -0.7071 0.7071 0.7071 7.5046 38.2304)" width="5.8" height="1.5"/>
	</g>
</g>
</svg>
