<?xml version="1.0" encoding="utf-8"?>
<!-- Generator: Adobe Illustrator 19.0.1, SVG Export Plug-In . SVG Version: 6.00 Build 0)  -->
<svg version="1.1" id="Layer_1" xmlns="http://www.w3.org/2000/svg" xmlns:xlink="http://www.w3.org/1999/xlink" x="0px" y="0px"
	 viewBox="-172 200.9 266.1 393.1" style="enable-background:new -172 200.9 266.1 393.1;" xml:space="preserve">
<style type="text/css">
	.st0{fill:#FFFFFF;}
</style>
<g>
	<path class="st0" d="M-138.8,580.7c0-2.7,0-4.7,0-6.7c0-19.5,0.1-39-0.1-58.5c-0.1-5.5,1.5-9.9,5-14.1
		c27.4-32.5,54.7-65.1,81.9-97.7c1.5-1.8,2.9-3.6,4.7-5.7c-5.3-6.4-10.5-12.7-15.7-19c-22.7-26.9-45.3-54.1-68.1-81.1
		c-4-4.7-5.9-9.6-5.8-15.9c0.3-20.5,0.1-41,0.1-61.5c0-2,0-3.9,0-6.6c-8.5,0-16.5,0-24.4,0c-7.5,0.1-10.9-2.1-10.8-6.6
		c0.2-4.4,3.4-6.4,10.6-6.4c81.5,0,163,0,244.5,0c1.5,0,3-0.1,4.5,0.1c4,0.5,6.7,2.5,6.5,6.8c-0.1,4-2.8,6-6.6,6.1
		c-7.3,0.2-14.7,0.4-22,0c-4.7-0.2-6.3,1.1-6.2,6c0.3,20.8,0,41.7,0.2,62.5c0.1,6.1-1.8,10.9-5.7,15.4c-26.9,32-53.7,64.1-80.6,96.2
		c-1.1,1.3-2.1,2.6-3.3,4.1c1.7,2.1,3.2,4,4.8,5.9c27.3,32.6,54.6,65.2,81.9,97.7c3.3,3.9,4.9,8,4.8,13.2c-0.2,19.7-0.1,39.3-0.1,59
		c0,2,0,4,0,6.8c3,0,5.5,0,8.1,0c5.8,0,11.7-0.1,17.5,0c4.1,0.1,7.3,3.1,7.1,6.7c-0.2,4.3-2.8,6.1-6.8,6.4c-1.2,0.1-2.3,0.1-3.5,0.1
		c-81.8,0-163.7,0-245.5,0c-0.3,0-0.7,0-1,0c-6.1-0.1-9.4-2.4-9.3-6.6c0.1-4.1,3.6-6.6,9.4-6.6C-155,580.7-147.3,580.7-138.8,580.7z
		 M-39,407.9c-0.8,1.3-1.2,2-1.8,2.7c-27.5,32.9-55,65.7-82.3,98.6c-1.6,1.9-2.5,5.1-2.5,7.7c-0.2,19.5-0.1,39-0.1,58.5
		c0,1.6,0.2,3.2,0.3,5c57.9,0,115.5,0,173.1,0c0.1-1.3,0.4-2.3,0.4-3.3c0-20.5,0.1-41-0.1-61.5c0-2.4-1.4-5.1-3-7
		c-16.1-19.5-32.4-38.9-48.7-58.3C-15.1,436.4-26.7,422.6-39,407.9z M-38.4,388.2c0.9-1.5,1.3-2.2,1.9-2.9
		C-9.7,353.2,17.2,321.2,44,289c1.5-1.8,2.2-4.8,2.2-7.3c0.2-20.7,0-41.3,0.2-62c0-4.5-1.1-5.9-5.8-5.9c-52.8,0.2-105.7,0.2-158.5,0
		c-4.3,0-5.8,0.9-5.7,5.5c0.2,20.8,0,41.7,0.2,62.5c0,2.7,1.2,6,2.9,8c17.7,21.5,35.6,42.8,53.5,64.1
		C-57.8,365.1-48.5,376.2-38.4,388.2z"/>
</g>
</svg>
