<?xml version="1.0" encoding="utf-8"?>
<!-- Generator: Adobe Illustrator 19.2.1, SVG Export Plug-In . SVG Version: 6.00 Build 0)  -->
<svg version="1.1" id="Icon" xmlns="http://www.w3.org/2000/svg" xmlns:xlink="http://www.w3.org/1999/xlink" x="0px" y="0px"
	 viewBox="0 0 57.5 46" style="enable-background:new 0 0 57.5 46;" xml:space="preserve">
<path d="M40.9,0.3C39.9,0.1,39,0,38.1,0C32,0,28.5,4.3,27,6.8l-0.6,1.1l-0.6-1.1C24.2,4.3,20.8,0,14.7,0c-0.9,0-1.8,0.1-2.8,0.3
	C4.6,1.6,0,7.2,0,14.9c0,7.5,4.5,15.2,13,22.4c6.4,5.4,12.7,8.5,13,8.6c0.2,0.1,0.5,0.1,0.8,0c0.3-0.1,6.6-3.2,13-8.6
	c4-3.4,7.2-6.9,9.4-10.5l0.2-0.4h7.3c0.5,0,0.9-0.4,0.9-0.9c0-0.5-0.4-0.9-0.9-0.9H36.1l-3-6c-0.1-0.3-0.5-0.5-0.8-0.5
	c-0.3,0-0.6,0.2-0.7,0.6l-4.4,11.8l-4.9-15c-0.1-0.3-0.4-0.6-0.8-0.6c-0.4,0-0.7,0.2-0.8,0.5L17,24.8h-6.3c-0.5,0-0.9,0.4-0.9,0.9
	c0,0.5,0.4,0.9,0.9,0.9h6.9c0.3,0,0.7-0.2,0.8-0.5l3-7.5l5,15.1c0.1,0.3,0.4,0.6,0.8,0.6h0c0.4,0,0.7-0.2,0.8-0.6l4.6-12.3l2.3,4.7
	c0.1,0.3,0.4,0.5,0.8,0.5h11.8l-0.8,1.2C40.4,36.3,29.8,42.4,26.7,44l-0.4,0.2L26,44C22,41.8,1.6,30.2,1.7,14.9
	c0-6.9,4-11.7,10.5-13c0.8-0.2,1.7-0.2,2.5-0.2c8.2,0,10.8,8.5,10.9,8.9c0.1,0.4,0.4,0.6,0.8,0.6c0.4,0,0.7-0.3,0.8-0.6
	c0-0.1,2.6-8.9,10.9-8.9c0.8,0,1.6,0.1,2.5,0.2C47.1,3.2,51,8,51.1,14.9c0,1.6-0.2,3.3-0.7,5h1.8c0.4-1.7,0.6-3.3,0.6-5
	C52.7,7.2,48.2,1.6,40.9,0.3z"/>
</svg>
