<?xml version="1.0" encoding="utf-8"?>
<!-- Generator: Adobe Illustrator 19.0.1, SVG Export Plug-In . SVG Version: 6.00 Build 0)  -->
<svg version="1.1" id="Layer_1" xmlns="http://www.w3.org/2000/svg" xmlns:xlink="http://www.w3.org/1999/xlink" x="0px" y="0px"
	 viewBox="-70 202.4 469.4 389.6" style="enable-background:new -70 202.4 469.4 389.6;" xml:space="preserve">
<style type="text/css">
	.st0{fill:#FFFFFF;}
</style>
<g>
	<path class="st0" d="M94.8,589.1c-51.1,0-102.3,0-153.4,0c-1.7,0-3.4,0-5-0.2c-5.4-0.8-7.7-4.8-5.6-9.8c0.8-1.8,1.9-3.5,3-5.2
		C-18.8,504,28.6,434.1,76,364.2c21.6-31.8,43.2-63.7,64.8-95.6c0.8-1.2,1.7-2.5,2.2-3.9c2.8-7.6,3.3-8,11.1-7.4
		c24.1,1.9,48.2,3.8,72.2,5.9c3.9,0.3,6-0.7,8-4c7.9-13.4,17.6-25.4,29.2-35.9c26.4-23.9,55.4-26.7,86.9-11.3
		c33.6,16.5,51.7,48.1,48.8,87.1c-0.7,9.7-3.2,19.3-5.7,28.8c-12,46.1-23.8,92.3-36.9,138c-3.3,11.4-2.6,22.5-4,33.7
		c-6.1,46.9-34,74.3-77.8,87.7c-10.9,3.3-22,4.7-33.5,4.7c-48.8-0.2-97.6-0.1-146.4-0.1C94.8,590.9,94.8,590,94.8,589.1z M-52,576.2
		c3.8,0,6.1,0,8.3,0c96,0.9,192,1.8,288,2.5c8.4,0.1,17-1.4,25.1-3.4c44.8-11.3,70.2-43.6,70.7-89.6c0.3-32.5-8.9-61.6-33.7-83.5
		c-30.2-26.6-64.4-39.9-105-26.5c-17.9,5.9-34.2,14.6-46.2,29.4c-21,25.7-20.3,54.7-10.8,84.3c6.3,19.6,20.4,32.3,40.1,38
		c26.6,7.7,51.9,3.7,75-11.6c21.2-14,29.3-34.2,24.4-58.3c-2.6-12.9-9.9-22.5-21.5-28.5c-14.9-7.7-30.7-8.5-46.7-4.7
		c-23.2,5.5-28.7,24-25.1,43.4c1.5,8.2,7,12.5,15.4,11.9c5-0.4,10-2.2,14.8-3.8c4.3-1.5,7.8-0.8,9.4,2.7c1.8,4,0.1,6.9-3.3,8.8
		c-9.1,5-18.7,7-28.9,4.7c-7.5-1.7-13.2-6.1-16.9-13c-10.7-19.8-3.2-49.9,16.4-60.9c22.1-12.5,45.3-11.8,68.3-1.9
		c12.6,5.4,21.8,14.6,27.3,27.2c10.8,24.6,5.5,53.7-13.5,72.7c-18.8,18.7-42.1,27.4-68.1,27.9c-40.3,0.8-73.7-19.4-83-63
		c-5.3-25.1-4.8-49.8,8.6-72.7c4.3-7.4,8.9-14.7,13.6-21.9c23.3-35.3,46.7-70.6,70.1-105.9c0.8-1.2,1.4-2.5,2.3-4.1
		c-2.1-0.3-3.5-0.6-5-0.7c-18.3-1.5-36.6-2.6-54.8-4.5c-5.7-0.6-8.9,0.8-12.2,5.6c-62.2,92.1-124.7,184-187,276
		C-41.1,560-46.1,567.4-52,576.2z M348.4,446.3c0.8-2.2,1.1-3.1,1.4-4c9.6-36.2,19.2-72.5,28.8-108.7c4.3-16.4,8.9-32.6,7.6-50.1
		c-2.8-36.8-36.2-68.4-73.3-68.3c-17.9,0.1-31.5,9-44.1,20.7c-13.2,12.2-21.3,28.1-31.2,42.6c-20.1,29.3-39.3,59.1-58.9,88.7
		c-0.8,1.1-1.3,2.4-2.7,5c34.8-17.9,68.6-20.2,103.2-3.9C313,384.3,336.9,409,348.4,446.3z"/>
</g>
</svg>
