<?xml version="1.0" encoding="utf-8"?>
<!-- Generator: Adobe Illustrator 19.0.1, SVG Export Plug-In . SVG Version: 6.00 Build 0)  -->
<svg version="1.1" id="Layer_1" xmlns="http://www.w3.org/2000/svg" xmlns:xlink="http://www.w3.org/1999/xlink" x="0px" y="0px"
	 viewBox="-105 208.9 400.2 376.1" style="enable-background:new -105 208.9 400.2 376.1;" xml:space="preserve">
<style type="text/css">
	.st0{fill:#177AF1;}
</style>
<g>
	<path class="st0" d="M-105,522c8.3-38.5,51.9-53,83.2-49.6c15.5,1.7,29.9,6.4,42.6,15.7c0.5,0.4,1.1,0.5,2.4,1.2
		c0-6.7,0-12.8,0-18.9c-0.1-33.1-0.1-66.3-0.2-99.4c0-49.7,0-99.3-0.1-149c0-9.1,3.9-12.9,13.2-12.9c80.1,0,160.3,0,240.4,0
		c2.7,0,5.3-0.3,8-0.2c6,0.1,10,4,10.4,9.9c0.2,3.7,0.1,7.3,0.1,11c0,95.1,0,190.3,0,285.4c0,6.3,0.2,12.7-0.6,18.9
		c-2.1,15.5-10.9,26.9-23.3,35.7c-10.9,7.8-23.2,12.1-36.4,14.1c-1.3,0.2-2.5,0.6-3.8,1c-6.7,0-13.3,0-20,0
		c-5.8-1.3-11.7-2.4-17.4-4.1c-14.5-4.4-27.2-11.8-36.5-24c-14.6-19-13.3-43,3.2-60.7c15.2-16.2,34.7-23.1,56.4-24.1
		c20.4-1,39.3,3.9,56.1,16c0.5,0.4,1.1,0.5,2.2,1.1c0.1-2.3,0.2-4,0.2-5.7c0-45.2,0.1-90.3,0-135.5c0-7.7-0.5-15.3-0.2-23
		c0.2-4.8-1.6-5.9-6-5.9c-31.8,0.1-63.7,0.1-95.5,0.1c-41.3,0-82.7,0-124,0c-2.1,0-4.2,0-6.8,0c0,2.9,0,5,0,7.1
		c0,65.3-1.1,130.7,0.4,195.9c0.6,27.3-18.4,51.4-50.2,59.7c-4.6,1.2-9.4,2.1-14,3.1c-6.7,0-13.3,0-20,0c-0.9-0.3-1.8-0.7-2.8-0.9
		c-29.5-5-52.8-17.8-61.2-49.1C-105,530.7-105,526.3-105,522z M158.5,299.4c37.2,0,74.3-0.1,111.5,0.1c4.1,0,5.4-1.2,5.4-5.3
		c-0.2-20-0.2-40,0-60c0-4.3-1.4-5.2-5.4-5.2c-74,0.1-147.9,0.1-221.9,0c-3.9,0-5.2,1-5.1,5c0.2,19.8,0.3,39.7,0,59.5
		c-0.1,4.9,1.5,6.1,6.2,6.1C85.5,299.4,122,299.4,158.5,299.4z M-34.2,486.8c-15.5,0.4-32.6,5.2-46.1,19
		c-13.2,13.6-13.3,31.5-0.1,45.1c3.9,4,8.5,7.5,13.4,10.3c14.7,8.3,30.7,10.5,47.4,8.1c14.9-2.1,28.3-7.6,38.7-18.9
		c12.2-13.3,12.3-30.4,0.1-43.7c-2.8-3-6-5.8-9.4-8.1C-2.5,490.3-16.2,486.9-34.2,486.8z M220.2,570.2c16.8-0.1,31.5-4.1,44.4-13.8
		c6.7-5,11.8-11.3,14.3-19.4c4-12.8-1.3-26.4-14.1-36.2c-23.9-18.6-63.4-18.7-87.4-0.2c-20.8,16-20.8,40.1,0.1,55.9
		C190.4,566.2,205.2,570.1,220.2,570.2z"/>
</g>
</svg>
