<?xml version="1.0" encoding="utf-8"?>
<!-- Generator: Adobe Illustrator 19.2.1, SVG Export Plug-In . SVG Version: 6.00 Build 0)  -->
<svg version="1.1" id="Icon" xmlns="http://www.w3.org/2000/svg" xmlns:xlink="http://www.w3.org/1999/xlink" x="0px" y="0px"
	 viewBox="0 0 51.2 21.2" style="enable-background:new 0 0 51.2 21.2;" xml:space="preserve">
<g>
	<path d="M51.2,10.6c0-0.3-0.3-0.6-0.6-0.6h-1h-0.4V7.1c0-1-0.7-1.9-1.7-2.1c-0.1,0-0.3,0-0.4,0h-1.5h-0.4V2.1c0-1-0.7-1.9-1.7-2.1
		c-0.1,0-0.3,0-0.4,0h-3c-0.1,0-0.3,0-0.4,0c-1,0.2-1.7,1.1-1.7,2.1V10h-0.4h-24h-0.4V2.1c0-1-0.7-1.9-1.7-2.1c-0.1,0-0.3,0-0.4,0
		h-3C8,0,7.8,0,7.7,0C6.7,0.2,6,1.1,6,2.1V5H5.6H4.1C4,5,3.8,5,3.7,5C2.7,5.2,2,6.1,2,7.1V10H1.6h-1C0.3,10,0,10.3,0,10.6
		s0.3,0.6,0.6,0.6H2v2.9c0,1.2,1,2.1,2.1,2.1H6v2.9c0,1.2,1,2.1,2.1,2.1h3c1.2,0,2.1-1,2.1-2.1v-7.9H38v7.9c0,1.2,1,2.1,2.1,2.1h3
		c1.2,0,2.1-1,2.1-2.1v-2.9h1.9c1.2,0,2.1-1,2.1-2.1v-2.9h1.4C51,11.2,51.2,11,51.2,10.6z M6,15H5.6H4.1c-0.1,0-0.1,0-0.2,0
		c-0.4-0.1-0.7-0.4-0.7-0.8v-7c0-0.5,0.4-0.9,0.9-0.9H6V15z M12,19.1c0,0.4-0.3,0.7-0.7,0.8c-0.1,0-0.1,0-0.2,0h-3
		c-0.1,0-0.1,0-0.2,0c-0.4-0.1-0.7-0.4-0.7-0.8v-17c0-0.5,0.4-0.9,0.9-0.9h3c0.5,0,0.9,0.4,0.9,0.9V19.1z M44,19.1
		c0,0.4-0.3,0.7-0.7,0.8c-0.1,0-0.1,0-0.2,0h-3c-0.1,0-0.1,0-0.2,0c-0.4-0.1-0.7-0.4-0.7-0.8v-17c0-0.5,0.4-0.9,0.9-0.9h3
		c0.5,0,0.9,0.4,0.9,0.9V19.1z M48,14.1c0,0.4-0.3,0.7-0.7,0.8c-0.1,0-0.1,0-0.2,0h-1.5h-0.4V6.2h1.9c0.5,0,0.9,0.4,0.9,0.9V14.1z"
		/>
</g>
</svg>
