<?xml version="1.0" encoding="utf-8"?>
<!-- Generator: Adobe Illustrator 19.0.1, SVG Export Plug-In . SVG Version: 6.00 Build 0)  -->
<svg version="1.1" id="Layer_1" xmlns="http://www.w3.org/2000/svg" xmlns:xlink="http://www.w3.org/1999/xlink" x="0px" y="0px"
	 viewBox="-47 281 516 231" style="enable-background:new -47 281 516 231;" xml:space="preserve">
<style type="text/css">
	.st0{fill:#177AF1;}
</style>
<g>
	<path class="st0" d="M208.8,388.3c0.1-2.2,0.3-3.6,0.3-5.1c0-30-0.1-60-0.1-90c0-8.2,4.3-12.2,13.5-12.2c48.7,0,97.3,0,146,0
		c29,0,58,0,87,0c1.8,0,3.7,0,5.5,0.3c4.8,0.8,8,4.6,8.1,9.4c0.1,5-3.1,9-8.1,9.9c-1.9,0.3-4,0.3-6,0.3c-72.8,0-145.7,0-218.5,0
		c-2,0-3.9,0-6.7,0c0,2.4,0,4.4,0,6.3c0,29.2,0,58.3,0,87.5c0,10.1-3.3,13.4-13.5,13.4c-33,0-66,0-99,0c-2,0-3.9,0-6.5,0
		c0,2.5,0,4.4,0,6.4c0.1,28.5,0.2,57,0.2,85.5c0,6.6-4.3,11.1-11.7,11.8c-3,0.3-6,0.2-9,0.2c-41.2,0-82.3,0-123.5,0
		c-0.5,0-1,0-1.5,0c-7.8-0.1-12.3-3.7-12.3-10c0-6.2,4.5-9.9,12.4-9.9c39.8,0,79.7-0.1,119.5,0.1c4.8,0,6.2-1.2,6.1-6.1
		c-0.3-27.2-0.2-54.3-0.2-81.5c0-10.5,5.8-16.3,16.4-16.3c31.7,0,63.3,0,95,0C204.2,388.3,206.2,388.3,208.8,388.3z"/>
</g>
</svg>
