<?xml version="1.0" encoding="utf-8"?>
<!-- Generator: Adobe Illustrator 19.2.1, SVG Export Plug-In . SVG Version: 6.00 Build 0)  -->
<svg version="1.1" id="Icon" xmlns="http://www.w3.org/2000/svg" xmlns:xlink="http://www.w3.org/1999/xlink" x="0px" y="0px"
	 viewBox="0 0 43.5 22.5" style="enable-background:new 0 0 43.5 22.5;" xml:space="preserve">
<g>
	<path d="M0,20.8c0,1,0.8,1.8,1.8,1.8s1.8-0.8,1.8-1.8c0-0.1,0-0.3-0.1-0.4l0-0.1L14.2,9.4l0.1,0c0.2,0,0.3,0.1,0.4,0.1
		c0.3,0,0.7-0.1,1-0.3l0.1-0.1L27,14.7l0,0.1c0.1,0.9,0.8,1.6,1.7,1.6c1,0,1.8-0.8,1.8-1.8c0-0.1,0-0.3-0.1-0.4l0-0.1L42,2.6v5.2
		c0,0.4,0.3,0.8,0.8,0.8s0.8-0.3,0.8-0.8v-7c0-0.4-0.3-0.8-0.8-0.8h-7C35.3,0,35,0.3,35,0.8s0.3,0.8,0.8,0.8h5.2L29.3,13.1l-0.1,0
		C29,13,28.9,13,28.8,13c-0.2,0-0.3,0-0.5,0.1c-0.2,0-0.3,0.1-0.5,0.2l-0.1,0.1L16.5,7.8l0-0.1C16.4,6.7,15.7,6,14.8,6
		c-1,0-1.8,0.8-1.8,1.8c0,0.1,0,0.3,0.1,0.4l0,0.1L2.3,19.1l-0.1,0C2,19,1.9,19,1.8,19C0.8,19,0,19.8,0,20.8z"/>
</g>
</svg>
