<?xml version="1.0" encoding="utf-8"?>
<!-- Generator: Adobe Illustrator 19.2.1, SVG Export Plug-In . SVG Version: 6.00 Build 0)  -->
<svg version="1.1" id="svg2" xmlns:svg="http://www.w3.org/2000/svg"
	 xmlns="http://www.w3.org/2000/svg" xmlns:xlink="http://www.w3.org/1999/xlink" x="0px" y="0px" viewBox="0 0 262.3 250.3"
	 style="enable-background:new 0 0 262.3 250.3;" xml:space="preserve">
<style type="text/css">
	.st0{fill:none;stroke:#FFFFFF;stroke-width:15;}
</style>
<g id="layer1">
	<path id="path2160" class="st0" d="M131.1,7.5c4.9,0,36.2,71.8,40.2,74.7c4,2.9,81.9,10.5,83.4,15.1c1.5,4.7-57.1,56.6-58.6,61.3
		s15.4,81.1,11.4,84c-4,2.9-71.5-36.8-76.4-36.8s-72.4,39.7-76.4,36.8c-4-2.9,12.9-79.4,11.4-84C64.6,153.9,6,102,7.5,97.3
		C9,92.6,87,85.1,91,82.2C94.9,79.3,126.2,7.5,131.1,7.5z"/>
</g>
</svg>
