<?xml version="1.0" encoding="utf-8"?>
<!-- Generator: Adobe Illustrator 19.0.1, SVG Export Plug-In . SVG Version: 6.00 Build 0)  -->
<svg version="1.1" id="Layer_1" xmlns="http://www.w3.org/2000/svg" xmlns:xlink="http://www.w3.org/1999/xlink" x="0px" y="0px"
	 viewBox="0 0 149.9 149.9" style="enable-background:new 0 0 149.9 149.9;" xml:space="preserve">
<style type="text/css">
	.st0{fill:#4174BA;}
	.st1{fill:#FFFFFF;}
</style>
<g>
	<path class="st0" d="M149.9,75.1c-0.1,42-33.2,74.9-75.3,74.8C33.3,149.8-0.2,116.1,0,74.7C0.2,33.4,33.9-0.1,75.3,0
		C116.7,0.1,150.1,33.6,149.9,75.1z M80.4,87.7c-6.6,6.5-12.2,11.9-17.6,17.5c-3.8,3.8-3.8,6.4-0.2,10.3c2.5,2.7,5.1,5.3,7.8,7.8
		c3.2,2.9,6.5,3.2,9.7,0c14.4-14.4,28.7-28.7,43.1-43.1c3.3-3.3,3.4-6.7,0.2-10C109,55.7,94.6,41.3,80.2,27c-3.4-3.4-6.5-3.2-10.1,0
		c-2.2,2-4.3,4.2-6.4,6.3c-4.9,4.9-5,7.7,0,12.6c5.3,5.2,10.8,10.2,16.2,15.2c-0.3,0.5-0.6,1-0.9,1.4c-12.9,0-25.8,0-38.7,0
		c-15.4,0-15.4,0-15.4,15.4c0,7.5,2,9.6,9.4,9.6C49.1,87.7,64,87.7,80.4,87.7z"/>
	<path class="st1" d="M80.4,87.7c-16.4,0-31.2,0-46,0c-7.4,0-9.4-2.1-9.4-9.6c0-15.4,0-15.4,15.4-15.4c12.9,0,25.8,0,38.7,0
		c0.3-0.5,0.6-1,0.9-1.4C74.6,56.2,69.1,51.2,63.8,46c-5-4.9-4.9-7.6,0-12.6c2.1-2.1,4.2-4.3,6.4-6.3c3.6-3.3,6.7-3.4,10.1,0
		c14.4,14.3,28.8,28.7,43.1,43.1c3.3,3.3,3.1,6.7-0.2,10c-14.4,14.4-28.7,28.7-43.1,43.1c-3.2,3.2-6.5,2.9-9.7,0
		c-2.7-2.5-5.3-5.1-7.8-7.8c-3.6-3.9-3.6-6.5,0.2-10.3C68.2,99.6,73.8,94.2,80.4,87.7z"/>
</g>
<g>
</g>
<g>
</g>
<g>
</g>
<g>
</g>
<g>
</g>
<g>
</g>
</svg>
