<?xml version="1.0" encoding="utf-8"?>
<!-- Generator: Adobe Illustrator 19.0.1, SVG Export Plug-In . SVG Version: 6.00 Build 0)  -->
<svg version="1.1" id="Layer_1" xmlns="http://www.w3.org/2000/svg" xmlns:xlink="http://www.w3.org/1999/xlink" x="0px" y="0px"
	 viewBox="0 0 302 302.3" style="enable-background:new 0 0 302 302.3;" xml:space="preserve">
<g>
	<path d="M22.8,177.8C-10.7,133.4-7.8,70.3,35.1,29.6c36.4-34.5,100.4-43.4,148.2-1.9c22.7,19.8,35,45.4,37.1,75.4
		c1.9,28.1-6.3,53.5-23.5,75.8c33.6,33.6,67,67,100.3,100.3c6,6,6.3,14,0.9,19.3c-5.4,5.3-12.7,4.9-18.8-1.2
		c-20.3-20.3-40.5-40.5-60.8-60.8c-13.1-13.1-26.1-26.2-39.4-39.4C121,240.6,53,217.8,22.8,177.8z M115.6,195.3
		c44.3-2.7,79.9-38.8,79.8-85.1c-0.2-48.3-39.1-86.6-89.3-84.7c-42.5,1.6-81.7,38-80.4,85.2C24.1,155.4,63.7,198.5,115.6,195.3z"/>
</g>
</svg>
