<?xml version="1.0" encoding="utf-8"?>
<!-- Generator: Adobe Illustrator 19.2.1, SVG Export Plug-In . SVG Version: 6.00 Build 0)  -->
<svg version="1.1" id="Layer_1" xmlns="http://www.w3.org/2000/svg" xmlns:xlink="http://www.w3.org/1999/xlink" x="0px" y="0px"
	 viewBox="0 0 1024.4 845.5" style="enable-background:new 0 0 1024.4 845.5;" xml:space="preserve">
<style type="text/css">
	.st0{fill:#FFFFFF;}
</style>
<g>
	<path class="st0" d="M511.8,75.7C570.4,36.4,635.6,16.8,704,5.9c40.5-6.4,81.2-8,122-2.9c33.5,4.2,65.6,12.9,95.3,29.3
		c51.4,28.5,81.9,72.6,94.9,129.1c15.5,67.6,8.4,133.7-15.4,198.3c-20.9,56.8-52.3,107.6-89.2,155.3
		c-46.9,60.5-101,113.8-159.3,163.2C679.5,739.9,601.8,794.5,519.7,843c-5.4,3.2-9.2,3.4-14.7,0.1
		C389.2,774.3,281.6,694.9,186.6,599C138,549.8,94.3,496.5,59.7,436.3c-25.5-44.3-44.9-91-54-141.6c-9.1-50.9-8.1-101.6,7.5-151.2
		C32.8,81.4,74.3,40.1,135.2,18C176.4,3,219.1-1.3,262.6,0.4c64.2,2.5,126,16.1,185.4,40.5C470.5,50.2,492.1,61.2,511.8,75.7z"/>
</g>
</svg>
