<?xml version="1.0" encoding="utf-8"?>
<!-- Generator: Adobe Illustrator 21.1.0, SVG Export Plug-In . SVG Version: 6.00 Build 0)  -->
<svg version="1.1" id="Layer_1" xmlns="http://www.w3.org/2000/svg" xmlns:xlink="http://www.w3.org/1999/xlink" x="0px" y="0px"
	 viewBox="0 0 1185.5 1334.7" style="enable-background:new 0 0 1185.5 1334.7;" xml:space="preserve">
<g>
	<path d="M0,1334.7c0-398,0-795.5,0-1193.5c90.5,0,180.8,0,271.8,0c0-2.3,0-4.2,0-6.1c0-39.8,0-79.7,0-119.5
		c0-11.4,9.7-18.6,19.4-14.4c6.2,2.7,8.7,7.7,8.7,14.4c-0.1,28,0,56,0,84c0,13.6,0,27.3,0,41.2c190.7,0,381,0,572,0
		c0-1.8,0-3.7,0-5.6c0-40,0-80,0-120c0-11,9.8-18.1,19.3-14c6.2,2.7,8.8,7.7,8.7,14.4c-0.1,23.8,0,47.7,0,71.5c0,17.8,0,35.6,0,54
		c95.4,0,190.5,0,285.8,0c0,398.1,0,795.7,0,1193.7C790.5,1334.7,395.4,1334.7,0,1334.7z M28,1306.7c376.8,0,753.1,0,1129.4,0
		c0-292.7,0-585.1,0-877.4c-376.7,0-752.9,0-1129.4,0C28,721.9,28,1014.1,28,1306.7z M871.8,169.4c-191,0-381.4,0-572,0
		c0,2.2,0,4,0,5.8c0,26,0.1,52-0.1,78c0,3.3-1,7-2.7,9.9c-3.1,5.2-9.6,7.1-15.3,5.3c-6.2-2-9.9-7-9.9-14c-0.1-26.5,0-53,0-79.5
		c0-1.8,0-3.6,0-5.5c-81.6,0-162.6,0-243.6,0c0,77.4,0,154.4,0,231.4c376.7,0,752.9,0,1129.3,0c0-77.3,0-154.4,0-231.3
		c-86.1,0-171.8,0-257.7,0c0,17.1,0,33.7,0,50.4c0,11.7,0.1,23.3,0,35c-0.1,8.1-6.1,14.1-13.8,14.2c-7.9,0.1-14-6-14.2-14.3
		c-0.1-2.3,0-4.7,0-7C871.8,221.8,871.8,195.8,871.8,169.4z"/>
	<path d="M592.5,1008.1c0-106,0-211.2,0-317.2c-1.9,1.4-3.3,2.4-4.7,3.5c-22.1,17.7-44.1,35.5-66.3,53.2c-8.8,7-20.5,3.5-23.1-6.8
		c-1.6-6.3,1-11.3,5.9-15.3c23-18.4,46.1-36.8,68.9-55.5c5.4-4.4,10.7-6.4,17.6-6c9.4,0.5,18.9,0.1,28.7,0.1c0,114.7,0,229,0,344
		c2.1,0,3.9,0,5.6,0c20.5,0,41,0,61.5,0c9.6,0,16,5.6,16.1,14c0,8.4-6.4,14-16,14c-53.7,0-107.3,0-161,0c-9.6,0-16-5.6-16-14
		c0-8.4,6.4-14,16-14c20.3,0,40.7,0,61,0C588.6,1008.1,590.4,1008.1,592.5,1008.1z"/>
</g>
</svg>
