<?xml version="1.0" encoding="utf-8"?>
<!-- Generator: Adobe Illustrator 21.1.0, SVG Export Plug-In . SVG Version: 6.00 Build 0)  -->
<svg version="1.1" id="Layer_1" xmlns="http://www.w3.org/2000/svg" xmlns:xlink="http://www.w3.org/1999/xlink" x="0px" y="0px"
	 viewBox="0 0 379.2 276" style="enable-background:new 0 0 379.2 276;" xml:space="preserve">
<g>
	<path d="M128.3,214c2.1-2.6,3.2-4.3,4.6-5.7C199.4,142,266.1,75.8,332.6,9.5c8.1-8.1,17.4-11.6,28.6-8.1
		C379,7,385.1,29.1,372.8,43.2c-1.5,1.8-3.2,3.4-4.9,5c-73.2,72.9-146.4,145.7-219.7,218.6c-12.2,12.1-27.7,12.3-39.8,0.3
		C75,233.8,41.6,200.5,8.2,167.2c-7.8-7.8-10.2-17.1-6.5-27.5c3.7-10.4,11.5-16.2,22.4-17.3c8.9-0.9,16.1,2.8,22.3,9
		c25.8,25.8,51.7,51.5,77.5,77.3C125.3,210,126.3,211.5,128.3,214z"/>
</g>
</svg>
