<?xml version="1.0" encoding="utf-8"?>
<!-- Generator: Adobe Illustrator 21.1.0, SVG Export Plug-In . SVG Version: 6.00 Build 0)  -->
<svg version="1.1" id="Layer_1" xmlns="http://www.w3.org/2000/svg" xmlns:xlink="http://www.w3.org/1999/xlink" x="0px" y="0px"
	 viewBox="0 0 1342 1342" style="enable-background:new 0 0 1342 1342;" xml:space="preserve">
<g>
	<path d="M1342,671c0,371-301.2,671-673.5,671C301.4,1341.9,0,1039.8,0,672C0,300.2,301-0.3,673.1,0C1041.4,0.3,1342,301.8,1342,671
		z M1254,671c0-321.9-261.7-583.2-583.8-583C349.5,88.2,88.2,349.7,88,670.7c-0.2,321.5,261.7,583.5,583.1,583.3
		C992.6,1253.8,1254,992.4,1254,671z"/>
	<path d="M567.8,798.5c2.4-2.8,3.5-4.5,4.9-5.9c113.2-113.3,226.5-226.5,339.7-339.7c14-14,30.5-18.2,48.9-11.1
		c28.9,11.1,36.9,48.2,15.8,70.7c-1.1,1.2-2.3,2.4-3.5,3.6C849.1,640.6,724.5,765.1,600,889.7c-18.4,18.4-45.4,18.7-63.9,0.3
		C479.5,833.4,423,776.9,366.5,720.2c-17.9-17.9-18-45.3-0.6-62.7c17.4-17.4,44.8-17.2,62.8,0.6c45.1,44.9,90.1,90,135.1,135
		C565,794.4,566,796,567.8,798.5z"/>
</g>
</svg>
