<?xml version="1.0" encoding="utf-8"?>
<!-- Generator: Adobe Illustrator 21.0.2, SVG Export Plug-In . SVG Version: 6.00 Build 0)  -->
<svg version="1.1" id="Layer_1" xmlns="http://www.w3.org/2000/svg" xmlns:xlink="http://www.w3.org/1999/xlink" x="0px" y="0px"
	 viewBox="0 0 1625 1205.5" style="enable-background:new 0 0 1625 1205.5;" xml:space="preserve">
<g>
	<path d="M0,1092c3.9-5.5,7.4-11.4,11.8-16.4c1.8-2.1,5.5-3.3,8.4-3.4c19.5-0.6,38.9-0.9,58.4-1c49-0.1,98-0.1,147,0
		c100,0,200,0,299.9,0.1c21.5,0,43,0.6,64.5,0.6c16,0,32-0.4,47.9-0.9c4.4-0.1,7.2,1.1,9.2,5.1c2,4,4.7,7.7,6.7,11.7
		c3.1,6.2,8,8.9,14.8,9.1c6.6,0.2,13.3,1.1,19.9,1.1c84.2,0.1,168.3,0.1,252.5-0.1c6.3,0,12.6-1,18.8-1.9c8.1-1.1,13-6.1,15.5-13.7
		c3.1-9.5,5.8-11.3,16.1-11.3c76.8,0,153.6,0.1,230.5,0.1c93.8,0.1,187.6,0.1,281.4,0.2c17.8,0,35.6,0.5,53.4,0.5
		c12.8,0,25.7,0.2,38.4-0.7c13.1-0.9,21.6,4.7,27.2,16c0.8,1.6,1.8,3.2,2.7,4.7c0,3,0,6,0,9c-8.9,22.4-19.3,44-34,63.5
		c-11.3,15-24.8,27.3-40.3,37.5c-3.3,2.2-7.8,2.8-11.8,3.3c-4.6,0.5-9.3,0-14,0c-45-0.1-89.9-0.1-134.9-0.1
		c-160.6,0-321.2,0-481.9,0c-63,0-126,0.1-188.9,0c-199.6,0-399.2,0-598.8-0.1c-10.3,0-20.7-0.2-31,0c-12.7,0.3-23.3-5.4-32-13.3
		c-9.6-8.6-17.8-18.9-25.7-29.1c-13.9-18-23.3-38.6-31.8-59.7C0,1099.4,0,1095.7,0,1092z"/>
	<path d="M812.5,0.1c201.2,0,402.3,0,603.5,0c8,0,16-0.2,24,0c10.8,0.2,20.8,4.6,29.3,10.2c11,7.2,21.2,16,30.4,25.5
		c11.9,12.3,19.2,27.4,23.6,44.2c4.8,18.2,3.4,36.6,3.5,55c0.2,75.8,0.1,151.6,0.1,227.5c0,172.8,0,345.6,0,518.5
		c0,34.8-0.3,69.7-0.2,104.5c0,9.7-4.8,17.2-10.5,23.6c-3.1,3.4-10,4.7-15.2,4.8c-30.9,0.5-61.9,0.4-92.8,0.4
		c-23.3,0-46.7-0.1-70-0.2c-113.8,0-227.7,0-341.5,0c-57.7,0-115.3-0.5-173-0.4c-177.6,0.1-355.3,0.4-532.9,0.7
		c-34.6,0.1-69.3,0.8-103.9,1c-20.5,0.1-41,0.4-61.4-0.2c-15.1-0.5-25.2-10-25.4-28c-0.2-26.3-0.1-52.6-0.1-78.9
		c0-185.5,0-371,0-556.5c0-38.3,0-76.7,0-115c0-44.1-0.2-88.3,0.2-132.4c0.2-20.1,3.6-39.7,15.7-56.8c3.3-4.7,5.4-10.4,11.2-12.9
		c0.6-0.2,1.1-0.8,1.4-1.4C138.7,18.6,154,12,169.5,4.9c11.2-5.1,22.2-4.8,33.6-4.8C406.2,0,609.3,0,812.5,0.1
		C812.5,0.1,812.5,0.1,812.5,0.1z M812.5,934c165.2,0,330.3,0,495.5,0c26.7,0,53.3,0,80-0.1c9.4,0,17.1-4.2,23-11.2
		c6.3-7.5,7.6-16.8,7.4-26.3c-0.2-10.1-0.4-20.3-0.4-30.4c0-48.3,0-96.6,0-145c0.1-168.6,0.2-337.3,0.3-505.9c0-23-0.6-46,0.2-69
		c0.4-11.8-3.3-21.9-7.9-32.1c-0.6-1.2-1.9-2.7-3.1-3c-5.9-1.6-11.9-3.8-17.9-3.9c-21.1-0.4-42.2-0.2-63.4-0.1
		c-16.1,0.1-32.2,0.6-48.3,0.6c-327,0-653.9,0-980.9,0c-6.6,0-13.2-0.2-19.9-0.1c-17.1,0.2-34.2,0.4-51.3,1
		c-2.6,0.1-5.8,1.4-7.6,3.2c-7.3,7.6-12,16.3-10.7,27.4c0.3,2.5,0.4,5,0.4,7.5c-0.2,22.5-0.7,45-0.7,67.5
		c-0.1,173.8-0.1,347.6-0.1,521.5c0,53.5,0.1,107,0.3,160.4c0,5.5,0.2,11,1,16.4c0.5,3.1,1.9,6.4,3.8,8.9
		c6.5,8.7,15.2,12.8,26.3,12.7c35.2-0.2,70.3-0.1,105.5-0.1C500.1,934,656.3,934,812.5,934z"/>
</g>
</svg>
