<?xml version="1.0" encoding="utf-8"?>
<!-- Generator: Adobe Illustrator 21.1.0, SVG Export Plug-In . SVG Version: 6.00 Build 0)  -->
<svg version="1.1" id="Layer_1" xmlns="http://www.w3.org/2000/svg" xmlns:xlink="http://www.w3.org/1999/xlink" x="0px" y="0px"
	 viewBox="0 0 1382.4 1239.6" style="enable-background:new 0 0 1382.4 1239.6;" xml:space="preserve">
<g>
	<path d="M0,634.2c0.2-2,0.6-3.9,0.6-5.9c0.7-58,8.2-114.9,26.4-170.1C42.9,409.8,65.7,365,101.5,328
		c44.6-46.2,99.1-75.2,161.8-88.7c42.1-9,84.3-8.4,126.6-1.1c48.3,8.3,96,18.8,142.4,35c25.9,9,50.4,20.9,74.7,33.3
		c1.8,0.9,3.5,1.8,6.2,3.1c-1.5-8.5-2.9-16.2-4.1-24c-6.2-39.8-21.8-75.6-50.5-103.8c-18-17.8-39.1-32.7-59.7-47.6
		c-26.3-19-55.3-33.2-86.6-42.3c-4.1-1.2-8.4-1.8-12.7-2.5c-7.4-1.1-12.9-8.7-11.3-15.9c1.3-6.3,9.5-10.9,16.2-9.1
		c33.5,9,65.1,22.3,94.5,40.8c27.2,17,52.6,36.4,76.6,57.6c12,10.6,21.6,23.1,29.1,37.2c4.6,8.6,9.5,17.1,14.7,26.4
		c3.5-8.6,7-16.1,9.7-23.8c13-36.8,35.1-67.7,60.7-96.7c22.4-25.4,46.8-48.2,77-64.4c39.4-21.2,81.4-34.4,125.6-41.1
		c3.4-0.5,7-0.6,10.4-0.1c8,1.4,11,6.2,9.2,14c-6.3,26.6-14.7,52.5-25.4,77.7c-24.2,56.8-58.2,106.9-101.9,150.5
		c-8.4,8.3-16.8,16.5-25.3,24.7c0.3,0.4,0.5,0.8,0.8,1.2c10.6-2.6,21.2-5,31.8-7.7c27.1-6.8,54.2-13.5,82.1-16.7
		c62.8-7.3,122.3,4,178.9,31.7c69,33.8,113,88.6,137.4,160.6c13.8,40.7,22.1,82.5,26.5,125.6c-8.8-3.8-17.4-7.3-25.7-11.4
		c-1.3-0.6-1.8-3.6-2.1-5.6c-5.7-46.7-16.9-91.8-36.7-134.8c-25.9-56.2-69.7-92.7-125.2-116.8c-41.8-18.2-85.5-26.4-131-23.9
		c-33.4,1.8-65.9,8.9-98.2,17.3c-57,14.7-112.4,33.9-166.6,56.8c-6.5,2.8-12.1,2.2-17.4-1.5c-38-26.3-80.7-42-124.6-54.9
		c-41.1-12.1-82.9-21.7-125.4-26.3c-78.1-8.5-148.9,11.3-212,58.2c-43.7,32.4-72.1,76-91.7,125.9c-14.6,37.2-23.4,75.9-28.3,115.6
		c-5.4,43.2-6.3,86.4-2.7,129.7c10.4,126.1,47.3,243.4,118.7,348.6c25.3,37.2,53.9,71.8,90.7,98.4c38.3,27.6,79.9,48.6,125.8,60.3
		c33.5,8.6,67.2,6.4,100.4-1.9c27.7-7,55.1-15.4,82.7-22.8c21.1-5.7,42.7-9.6,64.5-10c24.8-0.4,49.1,4.1,72.6,12.2
		c12.8,4.5,25.5,9.9,37.6,15.9c27.5,13.7,56.7,21.2,87,24.3c15.2,1.5,29.7-2.6,44-7.2c1.3-0.4,3.1-1.1,4.1-0.5
		c8.8,4.6,17.6,9.3,26.6,14.2c-26.7,12.8-54,20.7-83.8,17.4c-32.8-3.6-63.7-12.8-93.3-27.6c-27.8-14-57.2-23.1-88.5-24.1
		c-25-0.8-49.4,4-73.4,10.7c-24.8,6.9-49.4,14.9-74.4,21.2c-56.5,14.2-110.7,7.5-164.2-16c-68.5-30-123-75.6-166.7-135.9
		C77.9,981.6,37.4,887,16,784C6.3,737.3,1.1,690.2,0.6,642.6c0-1.8-0.4-3.6-0.6-5.4C0,636.2,0,635.2,0,634.2z M637.6,313.7
		c60.6-29.4,112.9-68,156.1-118.7c42.2-49.6,72.1-105.8,90.7-168.9c-1.8,0.3-3.1,0.5-4.3,0.8c-10.3,2.8-20.6,5.4-30.8,8.4
		C799,50.3,753,72.5,718,113.2c-5.1,5.9-10.6,11.6-15.7,17.5c-21.1,24.3-39.4,50.3-49.9,81.2c-8.7,25.6-11.8,52.2-13.4,79
		C638.6,298.2,638.1,305.6,637.6,313.7z"/>
	<path d="M1035.7,545.6c14.3-0.1,36.3,2.3,58.1,6.5c8.8,1.7,14.3,9.9,12.4,17.9c-1.8,7.5-10.9,13.5-19.8,11.1
		c-20.3-5.5-41.4-6.6-62.4-6.2c-140.4,2.5-258.7,101.9-285.6,239.7c-30.2,155,68.7,307.3,222.5,342.6
		c163.7,37.6,323.5-66.1,355.5-231.1c3.4-17.7,4.2-36,6-54c0.7-6.6,4.5-12,10.5-13.7c6-1.7,13.3,1.1,16.4,6.7c1.2,2.2,1.9,5,1.9,7.5
		c-1.9,94.5-37.3,174.2-106.8,238.2c-47.8,44.1-104.5,70.8-168.9,80.1c-170.2,24.6-324-84.9-362.2-243.6
		c-39.5-164.1,51-329.5,209.7-384.4C955.4,551.5,992.9,545.4,1035.7,545.6z"/>
	<path d="M1034.3,926.5c18.5-23.4,36.6-46.4,54.8-69.4c86.9-110.1,173.8-220.2,260.7-330.3c1.6-2.1,3.3-4.2,4.7-6.4
		c5-7.8,15-10.1,22-4.9c6.8,4.9,7.7,15.1,2,22.2c-77.1,97.7-154.2,195.4-231.2,293.1c-35.9,45.5-71.8,91.1-107.6,136.6
		c-0.7,0.9-1.5,1.8-2.4,2.9c-1.1-0.8-2.2-1.6-3.1-2.4c-39.4-35.2-78.8-70.3-118.2-105.5c-6.2-5.5-6.8-14.5-1.4-20.5
		c5.7-6.4,15.4-7.3,21.4-2c31.4,27.7,62.7,55.3,94.1,83C1031.3,924,1032.6,925.1,1034.3,926.5z"/>
	<path d="M304.6,387c3.8,0,7.7-0.2,11.5,0c8.2,0.6,12.5,6.4,11,14.4c-2,11.2-9.8,16.4-20.4,15.6c-24-1.9-45.4,5.8-63.8,21.1
		c-29.4,24.6-45,56.2-46,94.8c-0.2,9.3-6.4,15.7-15.1,15.7c-7.7,0-13.8-6.9-13.7-16c0.4-30.1,9.3-57.5,25.4-82.9
		c22.8-35.8,55.3-56.2,97.1-62.1c4.6-0.6,9.3-0.6,13.9-0.9C304.6,386.9,304.6,387,304.6,387z"/>
</g>
</svg>
