<?xml version="1.0" encoding="utf-8"?>
<!-- Generator: Adobe Illustrator 21.1.0, SVG Export Plug-In . SVG Version: 6.00 Build 0)  -->
<svg version="1.1" id="Layer_1" xmlns="http://www.w3.org/2000/svg" xmlns:xlink="http://www.w3.org/1999/xlink" x="0px" y="0px"
	 viewBox="0 0 775.6 1135.1" style="enable-background:new 0 0 775.6 1135.1;" xml:space="preserve">
<g>
	<path d="M608.7,0c14.8,2.1,29.4,3,43.3,6.4c20.5,5.1,34.7,18,37.5,39.9c1.2,9.4-0.3,19.3-0.8,28.9c-1.8,35.1-3.9,70.2-5.7,105.3
		c-2.6,49.8-5.1,99.5-7.6,149.3c-1.8,36.4-3.6,72.9-5.3,109.3c-2.2,45.4-4.5,90.9-6.7,136.3c-1.9,38.6-3.6,77.2-5.6,115.8
		c-0.2,3.6,1.1,5.2,4.1,6.8c29.9,15.6,56.3,35.6,77.4,62.1c33.5,42.1,43.9,89.8,30.1,141.5c-14.3,53.4-33.5,105.3-60.5,153.9
		c-12.4,22.4-26.8,43.4-46.8,59.9c-15.2,12.6-32.4,20.4-52.6,19.6c-13.3-0.5-25.4-4.8-36.7-11.6c-17.7-10.7-31.7-25.3-44.1-41.6
		c-26-34-44.9-72-60.5-111.6c-8.7-22.1-17.6-44.4-22.8-67.5c-15-65.9,5-121.5,53.8-167.3c15.9-14.9,33.6-27.3,52.9-37.4
		c3.1-1.6,4.2-3.3,4-6.9c-2.4-47.1-4.6-94.2-6.8-141.3c-1.8-37.1-3.5-74.2-5.3-111.3c-2.2-44.9-4.4-89.9-6.6-134.8
		c-2.1-42.4-4.1-84.9-6.4-127.3c-2.1-38.8-4.2-77.5-6.8-116.3c-2-29,13.3-49.6,44.1-55.8C581.7,1.6,595.4,1.4,608.7,0z M609.1,25.4
		c-4.2,0-8.3,0.1-12.5,0c-13.7-0.5-26.4,2.7-38.2,9.6c-7.3,4.3-10.3,10.8-10,18.8c0.8,16.8,2.2,33.6,3.1,50.4
		c2.6,48.1,5.2,96.2,7.6,144.3c2.2,43.1,4.3,86.2,6.4,129.3c2.2,45.8,4.5,91.5,6.7,137.3c1.9,37.9,3.8,75.9,5.6,113.8
		c1.2,26,2.3,51.9,3.5,77.9c0.1,2.9-0.3,4.8-3.5,6.1c-22.3,8.7-42.1,21.5-59.8,37.4c-45.9,41.3-63.6,92.2-47.5,152.3
		c6.9,25.7,17.5,50.6,27.9,75.2c14.3,33.8,31.5,66.1,54.7,94.9c9.5,11.7,20,22.4,33.2,30c18.2,10.6,36.2,10.3,53.5-1.7
		c5.6-3.9,10.9-8.3,15.7-13.1c15.4-15.5,26.7-34,36.8-53.2c22.7-43.2,39.4-88.9,52.6-135.7c14.7-52.3,2-98.5-35.7-137.6
		c-19.2-19.9-41.8-35-67-46.4c-10.3-4.6-10.2-4.5-9.7-15.8c2.3-45.4,4.4-90.9,6.6-136.3c2.5-51.9,4.8-103.9,7.4-155.8
		c3.1-63.2,6.3-126.5,9.6-189.7c2.8-53.1,5.9-106.1,9-159.2C666,42.8,661,35,646,29.9C634,25.8,621.6,24.9,609.1,25.4z"/>
	<path d="M287.2,178.4c0,50.7-0.5,101.3,0.2,152c0.4,26.5-9.5,47.9-26.9,66.6c-13.1,14.1-29,24.4-46.2,32.7
		c-3.1,1.5-4.5,2.9-4.3,6.6c3.1,61.7,6,123.5,9,185.2c2.1,44.8,4.2,89.5,6.4,134.3c2.8,56.6,5.7,113.2,8.6,169.7
		c2.1,39.9,4.2,79.9,6.4,119.8c0.4,7,0.7,14,1.4,20.9c2.2,21.9-6.9,38.6-26.6,48.6c-13,6.6-27,9.6-41.3,10.5
		c-26.3,1.8-52.6,2.2-78.7-1.7c-7.6-1.1-15.3-3.6-22.3-6.9c-19.2-9-28.5-24.5-27.4-45.7c1.2-24.1,2.9-48.2,4.2-72.4
		c2-35.9,3.8-71.9,5.7-107.8c2.6-50.6,5.1-101.2,7.6-151.8c1.8-36.8,3.6-73.6,5.3-110.3c2.2-46.1,4.5-92.2,6.7-138.3
		c0.9-18.1,1.5-36.3,2.5-54.4c0.2-3.5-1.1-4.9-4-6.3c-21.7-10.6-41.1-24.1-55.5-43.8C6.2,370.3-0.1,352.9,0,332.7
		C0.3,227.6,0.2,122.4,0.2,17.2C0.2,6.9,4.5,1.1,12.3,1.1c7.9,0,12.1,5.6,12.1,16c0,104.7,0.2,209.3-0.2,314
		c-0.1,18.4,6.4,33.4,18.1,46.7c14.8,16.7,33.6,27.6,54.1,35.8c4.7,1.9,6.1,4.2,5.9,9.1c-1.7,32.6-3,65.2-4.5,97.9
		c-1.8,38.4-3.7,76.9-5.6,115.3c-2.2,44.8-4.4,89.5-6.7,134.3c-1.8,35.3-3.5,70.6-5.3,105.8c-2.5,47.8-5.1,95.5-7.7,143.3
		c-1,17.8-2.2,35.6-3.4,53.4c-0.8,10.8,3.6,19,13.5,22.7c8.8,3.2,18.2,6.1,27.5,6.3c22.5,0.7,45,0.4,67.4-0.8
		c9-0.5,18.3-3.7,26.7-7.3c11.1-4.7,14-11.5,13.3-23.6c-1.8-30.3-3.6-60.5-5.2-90.8c-2.7-50.1-5.2-100.2-7.7-150.3
		c-2.2-43.6-4.2-87.2-6.4-130.8c-2.2-45.1-4.4-90.2-6.6-135.3c-1.8-37.8-3.6-75.6-5.4-113.3c-0.4-9.2-0.5-18.3-1.2-27.5
		c-0.3-4.3,1.5-6.1,5.1-7.6c16.5-6.6,32-14.9,45.4-26.7c13.4-11.8,24-25.5,26.8-43.8c0.4-2.5,0.4-5,0.4-7.5c0-106,0-212,0-318
		c0-2-0.1-4,0.1-6c0.6-6.5,5.5-11.2,11.8-11.3c6.4-0.1,11.8,4.8,12.4,11.3c0.1,1.7,0.1,3.3,0.1,5
		C287.2,71.1,287.2,124.8,287.2,178.4z"/>
	<path d="M119.2,166.5c0,47.1,0,94.3,0,141.4c0,7.1-2.7,11.4-8.3,13.3c-7.1,2.5-14.6-2-15.8-9.3c-0.3-1.8-0.3-3.7-0.3-5.5
		c0-93.3,0-186.5,0-279.8c0-2.5,0.1-5.1,0.8-7.4c1.6-5.1,7.3-8.5,12.6-7.9c5.7,0.7,10.2,5,10.9,10.7c0.2,1.6,0.1,3.3,0.1,5
		C119.2,73.6,119.2,120,119.2,166.5z"/>
	<path d="M196.4,166.9c0,46.5,0,92.9,0,139.4c0,2.3,0.1,4.7-0.5,6.9c-1.3,5.4-7,9.1-12.5,8.7c-5.8-0.5-10.6-5.1-11.2-10.9
		c-0.1-1.5-0.1-3-0.1-4.5c0-93.3,0-186.5,0-279.8c0-2.2-0.1-4.4,0.4-6.4c1.4-5.6,7.2-9.6,12.8-8.9c5.9,0.7,10.4,5.2,10.9,11.2
		c0.1,1.8,0.1,3.7,0.1,5.5C196.4,74.3,196.4,120.6,196.4,166.9z"/>
</g>
</svg>
