<?xml version="1.0" encoding="utf-8"?>
<!-- Generator: Adobe Illustrator 21.1.0, SVG Export Plug-In . SVG Version: 6.00 Build 0)  -->
<svg version="1.1" id="Layer_1" xmlns="http://www.w3.org/2000/svg" xmlns:xlink="http://www.w3.org/1999/xlink" x="0px" y="0px"
	 viewBox="0 0 2315.9 1008.7" style="enable-background:new 0 0 2315.9 1008.7;" xml:space="preserve">
<g>
	<path d="M618.5,948.7c0-157.2,0-313,0-468c1-1.2,1.1-1.5,1.4-1.7c0.2-0.2,0.5-0.3,0.8-0.5c0.3-0.1,0.6-0.2,1-0.3
		c0.3-0.1,0.7-0.1,1-0.1c0.3,0,0.7,0,1-0.1c0.3,0,0.7,0,1,0c0.3,0,0.7,0,1,0c0.7,0,1.3,0,2,0c175,0,350,0,525,0c0.3,0,0.7,0,1,0
		c0.3,0,0.7,0,1,0c0.3,0,0.7,0,1,0c0.3,0,0.7-0.1,1-0.1c0.3-0.1,0.7-0.1,1-0.2c0.3-0.1,0.6-0.3,1.8-0.9c0-158,0-316.5,0-475.5
		c3.1-0.5,5.2-1,7.4-1.1c2.7-0.2,5.3,0,8,0c367,0,734,0,1100.9,0c3.7,0,7.3-0.1,11,0.1c15.6,0.7,27.7,12.3,29,27.7
		c1.2,14.4-9.1,28.1-24,31.2c-4.8,1-9.9,1-14.9,1c-322.3,0-644.6,0-966.9,0c-26,0-52,0-78,0c-3.6,0-7.2,0-11.7,0
		c0,159.4,0,317.9,0,477.8c-26.5,0.3-52,0.1-77.5,0.2c-25.7,0-51.3,0-77,0s-51.3,0-77,0c-26,0-52,0-78,0c-25.7,0-51.3,0-77,0
		s-51.3,0-77,0c-25.6,0-51.2,0-77.9,0c0,157,0,313.2,0,470c-3.9,0.3-6.8,0.7-9.6,0.7c-212,0-424,0-636,0c-4,0-8.1-0.1-11.9-1.1
		C8.9,1004.2,0.2,992.5,0,979.4c-0.2-13.3,7.8-25.2,20.4-28.8c5.3-1.5,11.2-1.8,16.8-1.8c189-0.1,378-0.1,567-0.1
		C608.5,948.7,612.8,948.7,618.5,948.7z"/>
</g>
</svg>
