<?xml version="1.0" encoding="utf-8"?>
<!-- Generator: Adobe Illustrator 21.0.2, SVG Export Plug-In . SVG Version: 6.00 Build 0)  -->
<svg version="1.1" id="Layer_1" xmlns="http://www.w3.org/2000/svg" xmlns:xlink="http://www.w3.org/1999/xlink" x="0px" y="0px"
	 viewBox="0 0 1681 1722.5" style="enable-background:new 0 0 1681 1722.5;" xml:space="preserve">
<g>
	<path d="M0,135.5c1.3-10.4,1.9-20.9,4.2-31.1C16,50.3,62.9,7.9,117.7,1.4c6.8-0.8,13.6-1.2,20.4-1.2c297-0.1,594,0.2,891-0.2
		c64.6-0.1,118.3,42.7,133,100.5c2.9,11.3,4.5,23.3,4.6,35c0.4,91.5,0.2,183,0.2,274.5c0,1.3,0,2.6,0,4.4c-39,0-77.8,0-117.2,0
		c0-61.8,0-123.7,0-185.8c-310.8,0-620.9,0-931.4,0c0,419,0,838.1,0,1257.8c261.7,0,523.6,0,786,0c0,2.6,0,4.5,0,6.5
		c0,42.8,0.4,85.7-0.1,128.5c-0.5,38.7,11.3,72.3,39.1,99.8c0.3,0.3,0.5,0.8,0.7,1.3c-273.3,0-546.7,0-820,0
		c-1.5-0.3-2.9-0.8-4.4-0.9c-57.5-5.9-106.9-51.9-116.7-109c-1.4-8.3-2-16.7-3-25.1C0,1103.5,0,619.5,0,135.5z M585.9,1554.3
		c-28.2,0.1-50.8,22.7-50.8,50.8c0,28.2,23.2,51.3,51.2,51.2c28.1-0.1,50.9-23.3,50.8-51.5C636.9,1576.8,614.1,1554.2,585.9,1554.3z
		"/>
	<path d="M1102,1722.5c-5.7-1.3-11.4-2.2-17-3.8c-40.7-11.6-69-47.9-70.3-90.2c-0.1-2.2-0.1-4.3-0.1-6.5c0-338.1,0-676.2,0-1014.3
		c0-38.8,16.2-68.3,49.5-88.2c14.8-8.8,31.1-12.6,48.2-12.6c157,0,313.9-0.1,470.9,0.1c50,0.1,89.6,35,96.8,84.3
		c0.1,0.8,0.6,1.5,0.9,2.2c0,347.3,0,694.7,0,1042c-0.3,1.1-0.8,2.2-0.9,3.3c-5.5,39.5-34.3,71.5-73,80.8c-4.3,1-8.7,1.9-13,2.8
		C1430,1722.5,1266,1722.5,1102,1722.5z M1074.9,671.7c0,293.8,0,587.1,0,880.4c182.3,0,364.2,0,546,0c0-293.7,0-586.9,0-880.4
		C1438.9,671.7,1257.1,671.7,1074.9,671.7z M1237.7,613.6c73.7,0,146.9,0,220.3,0c0-8.2,0-16.1,0-24.1c-73.6,0-146.8,0-220.3,0
		C1237.7,597.5,1237.7,605.3,1237.7,613.6z M1349.8,1674.7c20.2-0.1,36.3-16.3,36.3-36.7c0-20.2-16.3-36.6-36.5-36.6
		c-20.4,0-36.7,16.5-36.6,37C1313.2,1658.7,1329.6,1674.8,1349.8,1674.7z"/>
</g>
</svg>
