<?xml version="1.0" encoding="utf-8"?>
<!-- Generator: Adobe Illustrator 21.1.0, SVG Export Plug-In . SVG Version: 6.00 Build 0)  -->
<svg version="1.1" id="Layer_1" xmlns="http://www.w3.org/2000/svg" xmlns:xlink="http://www.w3.org/1999/xlink" x="0px" y="0px"
	 viewBox="0 0 2411 2410.9" style="enable-background:new 0 0 2411 2410.9;" xml:space="preserve">
<g>
	<path d="M1205.8,2410.9C539.9,2411-0.3,1871.6,0,1205.8C0.3,533.4,546.3-0.4,1206.3,0C1865.8,0.4,2411.1,534.3,2411,1206.3
		C2411,1871.9,1871.2,2410.7,1205.8,2410.9z M1848.6,1205.6c-330-191.7-658.7-382.5-987.3-573.3c-2.3-1.3-4.7-2.4-7.1-3.5
		c-0.2-0.1-0.6,0.1-0.9,0.2c-0.3,0.1-0.6,0.3-0.9,0.5c-2.3,28.5-1.1,1145.5,1.5,1153.8C1185.1,1590.9,1516.2,1398.6,1848.6,1205.6z"
		/>
</g>
</svg>
