<?xml version="1.0" encoding="utf-8"?>
<!-- Generator: Adobe Illustrator 21.1.0, SVG Export Plug-In . SVG Version: 6.00 Build 0)  -->
<svg version="1.1" id="Layer_1" xmlns="http://www.w3.org/2000/svg" xmlns:xlink="http://www.w3.org/1999/xlink" x="0px" y="0px"
	 viewBox="0 0 1000 1000" style="enable-background:new 0 0 1000 1000;" xml:space="preserve">
<g>
	<path d="M499.6,1000C224.5,1000.3,0.2,776.1,0,500.8C-0.2,224.6,223.4,0.2,498.9,0C775.4-0.2,1000,223.4,1000,498.7
		C1000,776.3,777,999.7,499.6,1000z M148.2,533.2c106.7,0,213.1,0,319.9,0c0,106.8,0,213.1,0,319.5c21.8,0,43.1,0,65.1,0
		c0-106.7,0-213.1,0-319.8c106.8,0,213.1,0,319.5,0c0-21.8,0-43.1,0-65.1c-106.7,0-213.1,0-319.8,0c0-106.8,0-213.1,0-319.5
		c-21.8,0-43.1,0-65.1,0c0,106.7,0,213.1,0,319.8c-106.8,0-213.1,0-319.6,0C148.2,489.7,148.2,511,148.2,533.2z"/>
</g>
</svg>
