<?xml version="1.0" encoding="utf-8"?>
<!-- Generator: Adobe Illustrator 21.1.0, SVG Export Plug-In . SVG Version: 6.00 Build 0)  -->
<svg version="1.1" id="Layer_1" xmlns="http://www.w3.org/2000/svg" xmlns:xlink="http://www.w3.org/1999/xlink" x="0px" y="0px"
	 viewBox="0 0 689 1357.1" style="enable-background:new 0 0 689 1357.1;" xml:space="preserve">
<g>
	<path d="M423.4,1090.9c-9.9,10.7-19.2,21.1-28.9,31.1c-11.7,11.9-23.7,23.4-35.8,34.9c-2.6,2.5-3.8,5-3.8,8.6
		c0.1,58.8,0.1,117.7,0.1,176.5c0,10-3.9,15.2-11.2,15.1c-7.1-0.2-10.7-5.2-10.7-15c0-58.5,0-117,0-175.5c0-3.3-0.8-5.8-3.3-8.4
		c-21-21.1-41.9-42.5-62.8-63.7c-0.7-0.7-1.4-1.4-2.4-2.5c-1.3,1.1-2.6,2-3.8,3.1c-78.6,74.5-157.2,149.1-235.8,223.6
		c-2.2,2-4.5,4-7.2,5.4c-6.9,3.6-14.6-0.6-15.7-8.3c-0.2-1.6-0.2-3.3-0.2-5c-0.7-105.5-1.3-211-2.1-316.5
		c-0.1-7.8,2.9-13.4,8.5-18.2c37.5-32.2,75-64.6,112.7-96.7c3.4-2.9,3.7-5.1,1.9-9.2C82,776,60.9,677.8,63.4,574.8
		c2.4-97.1,25.3-189.6,65-278C177.2,188.3,244.7,92.7,329.8,9.5c1.9-1.9,3.5-4,5.4-5.9c4.8-4.8,11.7-4.8,16.6-0.1
		c57.1,55.8,107.2,117.3,149.3,185.1c40.8,65.7,73.3,135.3,94.8,209.7c22.3,77,31.7,155.6,26.5,235.7
		c-5.3,81.5-25.2,159.4-57.7,234.1c-2.2,5.1-1.2,7.4,2.6,10.7c37.8,32.2,75.4,64.7,113.1,97c5.7,4.9,8.7,10.7,8.6,18.7
		c-0.8,105.3-1.4,210.6-2.1,316c0,1.7,0,3.3-0.2,5c-1.1,8-9,12.2-16.1,8.3c-2.6-1.4-4.9-3.4-7.1-5.5
		c-78.7-74.6-157.4-149.3-236.1-224C426.3,1093.4,425,1092.3,423.4,1090.9z M344.4,26.8c-1.3,0.7-1.8,0.9-2.2,1.2
		c-1,0.9-2,1.8-2.9,2.8c-82.7,82.5-148.2,176.7-194.9,283.9c-34.9,80.2-55.6,163.9-59,251.6c-3.3,84.4,9.7,166.5,38.2,245.9
		c43.4,121.3,113.5,225.3,205,315.4c1.1,1.1,2.4,2.1,4.3,3.6c0.1-2.5,0.3-4.1,0.3-5.7c0-75.5,0-151,0-226.5c0-7.8-0.1-15.7,0-23.5
		c0.1-8,4.2-12.9,10.8-12.9c6.7-0.1,10.9,4.9,11.1,13.2c0,1.2,0,2.3,0,3.5c0,81.8,0,163.6,0,245.5c0,1.6,0.2,3.1,0.3,5.8
		c2.1-1.9,3.4-3.1,4.6-4.3c43.5-42.3,81.9-89,115.5-139.5c60.4-90.8,102.3-189.1,119.1-297.3c9.4-60.7,10-121.5,2.1-182.3
		c-9.4-71.7-30-140.3-60-206.1c-43-94.3-101.1-178.4-172.3-253.5C357.6,40.4,350.9,33.5,344.4,26.8z M552.7,895
		c-31.2,64.8-69.8,123.9-115.2,179c75.8,71.9,151.2,143.5,226.6,215c1.2-2.8,1.2-5,1.2-7.1c0.6-94.3,1.1-188.6,1.8-282.9
		c0-4.3-1.4-7-4.5-9.8c-23.6-20.1-47-40.3-70.5-60.5C579.1,917.7,566.3,906.6,552.7,895z M250.4,1075
		C204.6,1019.8,166,960.6,135,896.4c-1.3,0.9-2,1.3-2.6,1.9c-35.6,30.6-71.3,61.2-106.8,92c-1.9,1.7-3.5,5-3.4,7.5
		c0.4,95.5,1,191,1.6,286.5c0,1.4,0.2,2.8,0.5,5.3C100,1217.7,175,1146.6,250.4,1075z"/>
	<path d="M437,396.1c0.1,51.5-41.6,93.2-93.1,93.2c-51.2,0-92.9-41.6-92.9-92.8c-0.1-51.5,41.6-93.2,93.1-93.2
		C395.3,303.3,436.9,344.9,437,396.1z M415,396.4c0-39.1-31.7-71-70.8-71.1c-39.1-0.1-71.1,31.7-71.2,70.7
		c-0.1,39.3,31.7,71.4,71,71.3C383.1,467.3,415,435.4,415,396.4z"/>
</g>
</svg>
