<?xml version="1.0" encoding="utf-8"?>
<!-- Generator: Adobe Illustrator 21.0.2, SVG Export Plug-In . SVG Version: 6.00 Build 0)  -->
<svg version="1.1" id="Layer_1" xmlns="http://www.w3.org/2000/svg" xmlns:xlink="http://www.w3.org/1999/xlink" x="0px" y="0px"
	 viewBox="0 0 438.7 538.1" style="enable-background:new 0 0 438.7 538.1;" xml:space="preserve">
<path d="M219.4,0c59.2,59.6,131.4,87.7,215.2,90.4c0.8,8.1,1.7,16.1,2.3,24.2c5.5,80.4-0.4,159.5-27.5,236
	c-16.5,46.5-40.9,88.1-76.6,122.6c-31.5,30.4-68.6,51.4-110.2,64.5c-2.3,0.7-5.3,0.3-7.7-0.4C134.3,511.5,78,458.5,42.5,382.6
	c-18.8-40.3-29.8-82.9-36.2-126.7c-5.7-39-7.3-78.3-5.8-117.6c0.6-15.9,2.2-31.8,3.3-47.8C87.8,87.8,160.1,59.6,219.4,0z
	 M218.8,379.2c60.3,0,109.4-48.9,109.6-109.2c0.1-60.5-48.9-109.8-109.4-109.8c-60.3,0-109.5,48.9-109.6,109.2
	C109.3,330,158.3,379.2,218.8,379.2z M217.4,116.8c25.5,0,50.9,0,76.4,0c2.2,0,4.4,0,6.4-0.5c4.3-1.1,6.5-4,6.3-8.4
	c-0.1-4.1-2.5-6.9-6.5-7.7c-2.2-0.5-4.6-0.4-7-0.4c-50.8,0-101.5,0-152.3,0c-8.2,0-12.3,2.8-12.4,8.4c-0.1,5.8,4.1,8.7,12.6,8.7
	C166.5,116.8,192,116.8,217.4,116.8z M212.9,443.2c33.4,0,61-10.3,81.9-28.1c0.9-0.8,1.8-1.5,2.5-2.4c2.7-3.4,2.7-7.9-0.2-11
	c-3-3.2-6.7-3.7-10.5-1.6c-2.2,1.2-4,2.9-6,4.4c-22.5,16.8-47.4,24.7-75.5,20.7c-20.7-3-39.3-11.2-56.1-23.6
	c-5.2-3.8-10.2-3.5-13.3,0.6c-3.1,4.1-2.1,9.2,3,12.9C162.6,432.6,189.1,442.7,212.9,443.2z"/>
<path d="M167.5,345.9c3.9-15.7,7.1-30.7,11.5-45.3c2.3-7.7,1.2-12.4-5.4-17.5c-12.1-9.3-23.3-19.8-36-30.8
	c8.2-0.8,15.3-1.4,22.4-2.1c10.8-1,21.6-2,32.4-2.7c3.2-0.2,4.6-1.5,5.7-4.3c6.1-15.3,12.4-30.4,19.1-46.5c1,2,1.7,3.2,2.3,4.5
	c5.8,14,11.6,28,17.2,42c1.1,2.8,2.5,4.1,5.7,4.3c17.1,1.3,34.2,2.9,51.3,4.4c0.8,0.1,1.6,0.2,3.3,0.5c-2.1,1.9-3.6,3.3-5.2,4.7
	c-11.7,10.1-23.4,20.3-35.2,30.3c-2.4,2-3,3.7-2.2,6.8c4,15.3,7.7,30.6,11.6,46c0.4,1.6,0.7,3.1,1.3,5.5c-2-1-3.2-1.5-4.5-2.2
	c-13.8-7.8-27.6-15.5-41.2-23.5c-3-1.7-5.1-1.8-8.1,0c-13.5,7.9-27.2,15.6-40.8,23.3C171.2,344,169.7,344.7,167.5,345.9z"/>
</svg>
