<?xml version="1.0" encoding="utf-8"?>
<!-- Generator: Adobe Illustrator 21.0.2, SVG Export Plug-In . SVG Version: 6.00 Build 0)  -->
<svg version="1.1" id="Layer_1" xmlns="http://www.w3.org/2000/svg" xmlns:xlink="http://www.w3.org/1999/xlink" x="0px" y="0px"
	 viewBox="0 0 1660 1660" style="enable-background:new 0 0 1660 1660;" xml:space="preserve">
<style type="text/css">
	.st0{fill:#F6F5FB;}
	.st1{fill:url(#SVGID_1_);stroke:url(#SVGID_2_);}
</style>
<g>
	<path class="st0" d="M1660,829.9c0,459.1-371.8,830.3-831.6,830.1C371.1,1659.9-0.2,1287.5,0,829.1C0.2,371,372.3-0.3,831.1,0
		C1288.6,0.3,1660,372.1,1660,829.9z M830.6,1268c240,0.5,433.6-193.5,437.5-429.7c4-246.7-194.2-442.2-430.9-445.4
		C591.3,389.6,395.6,587.4,392.9,825C390,1070.6,589.5,1268.9,830.6,1268z"/>
	<linearGradient id="SVGID_1_" gradientUnits="userSpaceOnUse" x1="830.4821" y1="392.7635" x2="830.4821" y2="1267.9287">
		<stop  offset="0" style="stop-color:#D4A6F7"/>
		<stop  offset="0.9995" style="stop-color:#9CC3FF"/>
	</linearGradient>
	<linearGradient id="SVGID_2_" gradientUnits="userSpaceOnUse" x1="392.3995" y1="830.3461" x2="1268.5647" y2="830.3461">
		<stop  offset="0" style="stop-color:#D4A6F7"/>
		<stop  offset="1" style="stop-color:#9CC3FF"/>
	</linearGradient>
	<circle class="st1" cx="830.5" cy="830.3" r="437.6"/>
	<path class="st0" d="M825,561.8c59.2,59.6,131.4,87.7,215.2,90.4c0.8,8.1,1.7,16.1,2.3,24.2c5.5,80.4-0.4,159.5-27.5,236
		c-16.5,46.5-40.9,88.1-76.6,122.6c-31.5,30.4-68.6,51.4-110.2,64.5c-2.3,0.7-5.3,0.3-7.7-0.4c-80.6-25.8-136.9-78.7-172.4-154.7
		c-18.8-40.3-29.8-82.9-36.2-126.7c-5.7-39-7.3-78.3-5.8-117.6c0.6-15.9,2.2-31.8,3.3-47.8C693.4,649.6,765.7,621.4,825,561.8z
		 M824.4,941c60.3,0,109.4-48.9,109.6-109.2c0.1-60.5-48.9-109.8-109.4-109.8c-60.3,0-109.5,48.9-109.6,109.2
		C714.9,891.8,763.9,941,824.4,941z M823.1,678.6c25.5,0,50.9,0,76.4,0c2.2,0,4.4,0,6.4-0.5c4.3-1.1,6.5-4,6.3-8.4
		c-0.1-4.1-2.5-6.9-6.5-7.7c-2.2-0.5-4.6-0.4-7-0.4c-50.8,0-101.5,0-152.3,0c-8.2,0-12.3,2.8-12.4,8.4c-0.1,5.8,4.1,8.7,12.6,8.7
		C772.1,678.6,797.6,678.6,823.1,678.6z M818.6,1005c33.4,0,61-10.3,81.9-28.1c0.9-0.8,1.8-1.5,2.5-2.4c2.7-3.4,2.7-7.9-0.2-11
		c-3-3.2-6.7-3.7-10.5-1.6c-2.2,1.2-4,2.9-6,4.4c-22.5,16.8-47.4,24.7-75.5,20.7c-20.7-3-39.3-11.2-56.1-23.6
		c-5.2-3.8-10.2-3.5-13.3,0.6c-3.1,4.1-2.1,9.2,3,12.9C768.3,994.4,794.8,1004.5,818.6,1005z"/>
	<path class="st0" d="M773.1,907.7c3.9-15.7,7.1-30.7,11.5-45.3c2.3-7.7,1.2-12.4-5.4-17.5c-12.1-9.3-23.3-19.8-36-30.8
		c8.2-0.8,15.3-1.4,22.4-2.1c10.8-1,21.6-2,32.4-2.7c3.2-0.2,4.6-1.5,5.7-4.3c6.1-15.3,12.4-30.4,19.1-46.5c1,2,1.7,3.2,2.3,4.5
		c5.8,14,11.6,28,17.2,42c1.1,2.8,2.5,4.1,5.7,4.3c17.1,1.3,34.2,2.9,51.3,4.4c0.8,0.1,1.6,0.2,3.3,0.5c-2.1,1.9-3.6,3.3-5.2,4.7
		c-11.7,10.1-23.4,20.3-35.2,30.3c-2.4,2-3,3.7-2.2,6.8c4,15.3,7.7,30.6,11.6,46c0.4,1.6,0.7,3.1,1.3,5.5c-2-1-3.2-1.5-4.5-2.2
		c-13.8-7.8-27.6-15.5-41.2-23.5c-3-1.7-5.1-1.8-8.1,0c-13.5,7.9-27.2,15.6-40.8,23.3C776.8,905.8,775.4,906.5,773.1,907.7z"/>
</g>
</svg>
