<?xml version="1.0" encoding="utf-8"?>
<!-- Generator: Adobe Illustrator 21.1.0, SVG Export Plug-In . SVG Version: 6.00 Build 0)  -->
<svg version="1.1" id="Layer_1" xmlns="http://www.w3.org/2000/svg" xmlns:xlink="http://www.w3.org/1999/xlink" x="0px" y="0px"
	 viewBox="0 0 1686.3 1944.2" style="enable-background:new 0 0 1686.3 1944.2;" xml:space="preserve">
<g>
	<path d="M199.5,556c-51.2-51.2-101.7-101.6-151.1-151c50.4-50.9,100.2-101.3,150.9-152.6c52.6,52.6,105.5,105.5,158.8,158.8
		c103-72.1,215.9-118.9,339.5-140.9c0-73.1,0-145.6,0-219.3c-45.7,0.6-90.9,1.2-135.9,1.8c-2.6-7.5-3.6-30.8-1.8-44.9
		c184.9-2.7,370-5.3,556-8c0,15.2,0,29.6,0,44.9c-45.6,0.7-91,1.4-137.1,2.2c0,74.2,0,147.4,0,221.2c218,39,396.7,144.4,532.8,319.6
		c94.5,121.7,150.4,260.1,168.5,413.1c18.8,159.7-5,313.2-74,458.6c-214,450.4-755.1,614-1178.1,375.1
		c-147.3-83.2-259.6-201.1-336.4-351.8c-77-151.1-104.9-311.6-85.6-479.9C25.2,834.8,91.1,686.4,199.5,556z M842.5,1901.2
		c441.4,0.4,799.5-357.4,800.5-798.9c1-442.4-358.8-801.4-799.9-801.3C402.2,301,43.2,658.4,43,1100.2
		C42.7,1542.8,400.2,1900.2,842.5,1901.2z M932.4,47.6c-63.6,0.9-126,1.8-189,2.7c0,71.6,0,142,0,213.5c63.2-7.7,125.8-7.6,189-1.4
		C932.4,190.6,932.4,119.8,932.4,47.6z M198.8,318.4c-28.1,28.1-56.9,57-85.1,85.2c38.4,38.4,77.6,77.6,116.5,116.5
		c29.5-27,59.6-54.5,89-81.4C279.1,398.6,238.5,358,198.8,318.4z"/>
	<path d="M1294.2,612c11.2,11,21.3,21,31.9,31.4c-134.4,134.4-269.1,269.1-404.2,404.2c15.7,27.3,19.7,55.6,9.9,85
		c-7.4,22.3-21.4,39.8-41.3,52.2c-39.9,25.1-92,18.3-124.4-16c-32.4-34.3-36-86.6-8.9-125.1c23.5-33.4,75-58.4,132.9-27.7
		C1024.8,881.5,1159.7,746.6,1294.2,612z M782.2,1100.5c-0.2,31,24.5,56.3,55.3,56.6c30.5,0.4,56.3-25,56.6-55.6
		c0.4-30.7-24.8-56.1-55.6-56.3C807.4,1045,782.4,1069.5,782.2,1100.5z"/>
	<path d="M1378.2,1427.5c-1.7-22.9,19.8-42.7,41.9-42.7c19.3,0,42,16.3,42.1,41.7c0.1,23.6-18.6,42.6-42.2,42.6
		C1396.7,1469.2,1378.3,1450.8,1378.2,1427.5z"/>
	<path d="M796.2,428.5c0.1-23.3,18.8-41.6,42.3-41.3c23.2,0.2,41.9,19.3,41.6,42.3c-0.3,22.9-19.8,42-42.6,41.6
		C814.5,470.8,796.1,451.8,796.2,428.5z"/>
	<path d="M496.3,563.8c-23.5,0.1-41.9-18.2-42-41.6c-0.1-23.2,18.6-42.2,41.6-42.3c22.9-0.1,42.2,19,42.3,41.9
		C538.3,544.8,519.4,563.7,496.3,563.8z"/>
	<path d="M1173,563.8c-23.2,0-42-18.7-42.1-41.8c-0.1-22.8,19.3-42.1,42.1-42.1c23.1,0,41.8,18.9,41.8,42.1
		C1214.9,545.4,1196.4,563.8,1173,563.8z"/>
	<path d="M296.8,765.2c-0.1,23.2-19.1,42-42,41.9c-22.9-0.2-42-19.5-41.9-42.3c0.1-23,19.1-41.7,42.3-41.6
		C278.7,723.3,297,741.8,296.8,765.2z"/>
	<path d="M1420.2,723.2c23.2,0.1,42,18.9,41.9,42c-0.1,22.8-19.4,42.1-42.2,41.9c-23.1-0.1-41.7-19-41.7-42.3
		C1378.3,741.5,1396.8,723.1,1420.2,723.2z"/>
	<path d="M118.2,1100.6c0.1-23.3,18.7-41.6,42.2-41.4c23.2,0.2,42,19.2,41.7,42.2c-0.3,22.9-19.7,42-42.5,41.7
		C136.6,1142.8,118.1,1123.9,118.2,1100.6z"/>
	<path d="M1558.8,1101.2c-0.1,23.2-19.1,42-42,41.9c-22.9-0.2-42-19.5-41.9-42.3c0.1-23,19.1-41.7,42.3-41.6
		C1540.7,1059.3,1559,1077.8,1558.8,1101.2z"/>
	<path d="M296.8,1426.7c0.1,23.3-18.4,42.2-41.5,42.5c-22.8,0.3-42.1-18.8-42.4-41.7c-0.3-22.9,18.6-42,41.7-42.2
		C278.2,1385.1,296.7,1403.3,296.8,1426.7z"/>
	<path d="M504.8,1639.2c23.5-0.1,42,18.2,42.1,41.5c0.1,23.2-18.5,42.2-41.5,42.4c-22.8,0.2-42.1-18.9-42.4-41.8
		C462.7,1658.3,481.6,1639.3,504.8,1639.2z"/>
	<path d="M1172.6,1639.2c23.5-0.2,42.1,18,42.3,41.3c0.2,23.3-18.3,42.2-41.4,42.6c-22.8,0.3-42.2-18.6-42.5-41.6
		C1130.6,1658.5,1149.5,1639.4,1172.6,1639.2z"/>
	<path d="M796.2,1772.5c0.1-23.3,18.8-41.6,42.3-41.3c23.2,0.2,42,19.3,41.6,42.3c-0.3,22.9-19.8,42-42.6,41.6
		C814.5,1814.8,796.1,1795.8,796.2,1772.5z"/>
</g>
</svg>
