<?xml version="1.0" encoding="utf-8"?>
<!-- Generator: Adobe Illustrator 21.0.2, SVG Export Plug-In . SVG Version: 6.00 Build 0)  -->
<svg version="1.1" id="Layer_1" xmlns="http://www.w3.org/2000/svg" xmlns:xlink="http://www.w3.org/1999/xlink" x="0px" y="0px"
	 viewBox="0 0 904.4 702.8" style="enable-background:new 0 0 904.4 702.8;" xml:space="preserve">
<g>
	<path d="M904.4,0c0,187.2,0,374.1,0,561.6c-137.9,0-275.6,0-413.6,0c0,22.1,0,43.7,0,66c1.9,0,3.8,0,5.8,0c51.5,0,103,0,154.5-0.1
		c3.9,0,6.2,0.9,8.3,4.5c9.8,17.2,20,34.2,29.9,51.3c1.6,2.7,2.9,5.7,3.7,8.7c1.4,5.6-2.3,10.4-8.2,10.5c-6.7,0.1-13.3,0-20,0
		c-147,0-294-0.1-440.9,0.2c-10,0-15.4-6.6-9.7-16.3c11-18.9,21.9-37.7,33.2-56.4c0.9-1.5,3.8-2.4,5.7-2.4
		c41.5-0.1,83-0.1,124.5-0.1c10.8,0,21.6,0,32.7,0c0-22,0-43.8,0-65.8c-136.7,0-273.3,0-410.3,0C0,374.4,0,187.4,0,0
		C301.2,0,602.6,0,904.4,0z M77,76.9c0,136.1,0,271.8,0,407.4c250.4,0,500.4,0,750.4,0c0-136,0-271.6,0-407.4
		C577.2,76.9,327.2,76.9,77,76.9z"/>
</g>
</svg>
